G75*
G70*
%OFA0B0*%
%FSLAX24Y24*%
%IPPOS*%
%LPD*%
%AMOC8*
5,1,8,0,0,1.08239X$1,22.5*
%
%ADD10C,0.0000*%
%ADD11C,0.0040*%
%ADD12C,0.0060*%
%ADD13C,0.0020*%
%ADD14C,0.0050*%
%ADD15C,0.0030*%
%ADD16C,0.0098*%
D10*
X000367Y000100D02*
X000367Y037502D01*
X018084Y037502D01*
X018084Y000100D01*
X000367Y000100D01*
X001470Y001832D02*
X001472Y001882D01*
X001478Y001932D01*
X001488Y001981D01*
X001502Y002029D01*
X001519Y002076D01*
X001540Y002121D01*
X001565Y002165D01*
X001593Y002206D01*
X001625Y002245D01*
X001659Y002282D01*
X001696Y002316D01*
X001736Y002346D01*
X001778Y002373D01*
X001822Y002397D01*
X001868Y002418D01*
X001915Y002434D01*
X001963Y002447D01*
X002013Y002456D01*
X002062Y002461D01*
X002113Y002462D01*
X002163Y002459D01*
X002212Y002452D01*
X002261Y002441D01*
X002309Y002426D01*
X002355Y002408D01*
X002400Y002386D01*
X002443Y002360D01*
X002484Y002331D01*
X002523Y002299D01*
X002559Y002264D01*
X002591Y002226D01*
X002621Y002186D01*
X002648Y002143D01*
X002671Y002099D01*
X002690Y002053D01*
X002706Y002005D01*
X002718Y001956D01*
X002726Y001907D01*
X002730Y001857D01*
X002730Y001807D01*
X002726Y001757D01*
X002718Y001708D01*
X002706Y001659D01*
X002690Y001611D01*
X002671Y001565D01*
X002648Y001521D01*
X002621Y001478D01*
X002591Y001438D01*
X002559Y001400D01*
X002523Y001365D01*
X002484Y001333D01*
X002443Y001304D01*
X002400Y001278D01*
X002355Y001256D01*
X002309Y001238D01*
X002261Y001223D01*
X002212Y001212D01*
X002163Y001205D01*
X002113Y001202D01*
X002062Y001203D01*
X002013Y001208D01*
X001963Y001217D01*
X001915Y001230D01*
X001868Y001246D01*
X001822Y001267D01*
X001778Y001291D01*
X001736Y001318D01*
X001696Y001348D01*
X001659Y001382D01*
X001625Y001419D01*
X001593Y001458D01*
X001565Y001499D01*
X001540Y001543D01*
X001519Y001588D01*
X001502Y001635D01*
X001488Y001683D01*
X001478Y001732D01*
X001472Y001782D01*
X001470Y001832D01*
X002759Y014175D02*
X002761Y014200D01*
X002767Y014225D01*
X002776Y014249D01*
X002789Y014271D01*
X002806Y014291D01*
X002825Y014308D01*
X002846Y014322D01*
X002870Y014332D01*
X002894Y014339D01*
X002920Y014342D01*
X002945Y014341D01*
X002970Y014336D01*
X002994Y014327D01*
X003017Y014315D01*
X003037Y014300D01*
X003055Y014281D01*
X003070Y014260D01*
X003081Y014237D01*
X003089Y014213D01*
X003093Y014188D01*
X003093Y014162D01*
X003089Y014137D01*
X003081Y014113D01*
X003070Y014090D01*
X003055Y014069D01*
X003037Y014050D01*
X003017Y014035D01*
X002994Y014023D01*
X002970Y014014D01*
X002945Y014009D01*
X002920Y014008D01*
X002894Y014011D01*
X002870Y014018D01*
X002846Y014028D01*
X002825Y014042D01*
X002806Y014059D01*
X002789Y014079D01*
X002776Y014101D01*
X002767Y014125D01*
X002761Y014150D01*
X002759Y014175D01*
X002759Y016340D02*
X002761Y016365D01*
X002767Y016390D01*
X002776Y016414D01*
X002789Y016436D01*
X002806Y016456D01*
X002825Y016473D01*
X002846Y016487D01*
X002870Y016497D01*
X002894Y016504D01*
X002920Y016507D01*
X002945Y016506D01*
X002970Y016501D01*
X002994Y016492D01*
X003017Y016480D01*
X003037Y016465D01*
X003055Y016446D01*
X003070Y016425D01*
X003081Y016402D01*
X003089Y016378D01*
X003093Y016353D01*
X003093Y016327D01*
X003089Y016302D01*
X003081Y016278D01*
X003070Y016255D01*
X003055Y016234D01*
X003037Y016215D01*
X003017Y016200D01*
X002994Y016188D01*
X002970Y016179D01*
X002945Y016174D01*
X002920Y016173D01*
X002894Y016176D01*
X002870Y016183D01*
X002846Y016193D01*
X002825Y016207D01*
X002806Y016224D01*
X002789Y016244D01*
X002776Y016266D01*
X002767Y016290D01*
X002761Y016315D01*
X002759Y016340D01*
X002759Y021261D02*
X002761Y021286D01*
X002767Y021311D01*
X002776Y021335D01*
X002789Y021357D01*
X002806Y021377D01*
X002825Y021394D01*
X002846Y021408D01*
X002870Y021418D01*
X002894Y021425D01*
X002920Y021428D01*
X002945Y021427D01*
X002970Y021422D01*
X002994Y021413D01*
X003017Y021401D01*
X003037Y021386D01*
X003055Y021367D01*
X003070Y021346D01*
X003081Y021323D01*
X003089Y021299D01*
X003093Y021274D01*
X003093Y021248D01*
X003089Y021223D01*
X003081Y021199D01*
X003070Y021176D01*
X003055Y021155D01*
X003037Y021136D01*
X003017Y021121D01*
X002994Y021109D01*
X002970Y021100D01*
X002945Y021095D01*
X002920Y021094D01*
X002894Y021097D01*
X002870Y021104D01*
X002846Y021114D01*
X002825Y021128D01*
X002806Y021145D01*
X002789Y021165D01*
X002776Y021187D01*
X002767Y021211D01*
X002761Y021236D01*
X002759Y021261D01*
X002759Y023427D02*
X002761Y023452D01*
X002767Y023477D01*
X002776Y023501D01*
X002789Y023523D01*
X002806Y023543D01*
X002825Y023560D01*
X002846Y023574D01*
X002870Y023584D01*
X002894Y023591D01*
X002920Y023594D01*
X002945Y023593D01*
X002970Y023588D01*
X002994Y023579D01*
X003017Y023567D01*
X003037Y023552D01*
X003055Y023533D01*
X003070Y023512D01*
X003081Y023489D01*
X003089Y023465D01*
X003093Y023440D01*
X003093Y023414D01*
X003089Y023389D01*
X003081Y023365D01*
X003070Y023342D01*
X003055Y023321D01*
X003037Y023302D01*
X003017Y023287D01*
X002994Y023275D01*
X002970Y023266D01*
X002945Y023261D01*
X002920Y023260D01*
X002894Y023263D01*
X002870Y023270D01*
X002846Y023280D01*
X002825Y023294D01*
X002806Y023311D01*
X002789Y023331D01*
X002776Y023353D01*
X002767Y023377D01*
X002761Y023402D01*
X002759Y023427D01*
X001470Y035769D02*
X001472Y035819D01*
X001478Y035869D01*
X001488Y035918D01*
X001502Y035966D01*
X001519Y036013D01*
X001540Y036058D01*
X001565Y036102D01*
X001593Y036143D01*
X001625Y036182D01*
X001659Y036219D01*
X001696Y036253D01*
X001736Y036283D01*
X001778Y036310D01*
X001822Y036334D01*
X001868Y036355D01*
X001915Y036371D01*
X001963Y036384D01*
X002013Y036393D01*
X002062Y036398D01*
X002113Y036399D01*
X002163Y036396D01*
X002212Y036389D01*
X002261Y036378D01*
X002309Y036363D01*
X002355Y036345D01*
X002400Y036323D01*
X002443Y036297D01*
X002484Y036268D01*
X002523Y036236D01*
X002559Y036201D01*
X002591Y036163D01*
X002621Y036123D01*
X002648Y036080D01*
X002671Y036036D01*
X002690Y035990D01*
X002706Y035942D01*
X002718Y035893D01*
X002726Y035844D01*
X002730Y035794D01*
X002730Y035744D01*
X002726Y035694D01*
X002718Y035645D01*
X002706Y035596D01*
X002690Y035548D01*
X002671Y035502D01*
X002648Y035458D01*
X002621Y035415D01*
X002591Y035375D01*
X002559Y035337D01*
X002523Y035302D01*
X002484Y035270D01*
X002443Y035241D01*
X002400Y035215D01*
X002355Y035193D01*
X002309Y035175D01*
X002261Y035160D01*
X002212Y035149D01*
X002163Y035142D01*
X002113Y035139D01*
X002062Y035140D01*
X002013Y035145D01*
X001963Y035154D01*
X001915Y035167D01*
X001868Y035183D01*
X001822Y035204D01*
X001778Y035228D01*
X001736Y035255D01*
X001696Y035285D01*
X001659Y035319D01*
X001625Y035356D01*
X001593Y035395D01*
X001565Y035436D01*
X001540Y035480D01*
X001519Y035525D01*
X001502Y035572D01*
X001488Y035620D01*
X001478Y035669D01*
X001472Y035719D01*
X001470Y035769D01*
X015722Y035769D02*
X015724Y035819D01*
X015730Y035869D01*
X015740Y035918D01*
X015754Y035966D01*
X015771Y036013D01*
X015792Y036058D01*
X015817Y036102D01*
X015845Y036143D01*
X015877Y036182D01*
X015911Y036219D01*
X015948Y036253D01*
X015988Y036283D01*
X016030Y036310D01*
X016074Y036334D01*
X016120Y036355D01*
X016167Y036371D01*
X016215Y036384D01*
X016265Y036393D01*
X016314Y036398D01*
X016365Y036399D01*
X016415Y036396D01*
X016464Y036389D01*
X016513Y036378D01*
X016561Y036363D01*
X016607Y036345D01*
X016652Y036323D01*
X016695Y036297D01*
X016736Y036268D01*
X016775Y036236D01*
X016811Y036201D01*
X016843Y036163D01*
X016873Y036123D01*
X016900Y036080D01*
X016923Y036036D01*
X016942Y035990D01*
X016958Y035942D01*
X016970Y035893D01*
X016978Y035844D01*
X016982Y035794D01*
X016982Y035744D01*
X016978Y035694D01*
X016970Y035645D01*
X016958Y035596D01*
X016942Y035548D01*
X016923Y035502D01*
X016900Y035458D01*
X016873Y035415D01*
X016843Y035375D01*
X016811Y035337D01*
X016775Y035302D01*
X016736Y035270D01*
X016695Y035241D01*
X016652Y035215D01*
X016607Y035193D01*
X016561Y035175D01*
X016513Y035160D01*
X016464Y035149D01*
X016415Y035142D01*
X016365Y035139D01*
X016314Y035140D01*
X016265Y035145D01*
X016215Y035154D01*
X016167Y035167D01*
X016120Y035183D01*
X016074Y035204D01*
X016030Y035228D01*
X015988Y035255D01*
X015948Y035285D01*
X015911Y035319D01*
X015877Y035356D01*
X015845Y035395D01*
X015817Y035436D01*
X015792Y035480D01*
X015771Y035525D01*
X015754Y035572D01*
X015740Y035620D01*
X015730Y035669D01*
X015724Y035719D01*
X015722Y035769D01*
X015722Y001832D02*
X015724Y001882D01*
X015730Y001932D01*
X015740Y001981D01*
X015754Y002029D01*
X015771Y002076D01*
X015792Y002121D01*
X015817Y002165D01*
X015845Y002206D01*
X015877Y002245D01*
X015911Y002282D01*
X015948Y002316D01*
X015988Y002346D01*
X016030Y002373D01*
X016074Y002397D01*
X016120Y002418D01*
X016167Y002434D01*
X016215Y002447D01*
X016265Y002456D01*
X016314Y002461D01*
X016365Y002462D01*
X016415Y002459D01*
X016464Y002452D01*
X016513Y002441D01*
X016561Y002426D01*
X016607Y002408D01*
X016652Y002386D01*
X016695Y002360D01*
X016736Y002331D01*
X016775Y002299D01*
X016811Y002264D01*
X016843Y002226D01*
X016873Y002186D01*
X016900Y002143D01*
X016923Y002099D01*
X016942Y002053D01*
X016958Y002005D01*
X016970Y001956D01*
X016978Y001907D01*
X016982Y001857D01*
X016982Y001807D01*
X016978Y001757D01*
X016970Y001708D01*
X016958Y001659D01*
X016942Y001611D01*
X016923Y001565D01*
X016900Y001521D01*
X016873Y001478D01*
X016843Y001438D01*
X016811Y001400D01*
X016775Y001365D01*
X016736Y001333D01*
X016695Y001304D01*
X016652Y001278D01*
X016607Y001256D01*
X016561Y001238D01*
X016513Y001223D01*
X016464Y001212D01*
X016415Y001205D01*
X016365Y001202D01*
X016314Y001203D01*
X016265Y001208D01*
X016215Y001217D01*
X016167Y001230D01*
X016120Y001246D01*
X016074Y001267D01*
X016030Y001291D01*
X015988Y001318D01*
X015948Y001348D01*
X015911Y001382D01*
X015877Y001419D01*
X015845Y001458D01*
X015817Y001499D01*
X015792Y001543D01*
X015771Y001588D01*
X015754Y001635D01*
X015740Y001683D01*
X015730Y001732D01*
X015724Y001782D01*
X015722Y001832D01*
D11*
X011972Y014110D02*
X012049Y014187D01*
X012049Y014417D01*
X012125Y014417D02*
X011895Y014417D01*
X011895Y014187D01*
X011972Y014110D01*
X012202Y014340D02*
X012125Y014417D01*
X012202Y014340D02*
X012202Y014187D01*
X012125Y014570D02*
X012202Y014647D01*
X012202Y014877D01*
X012356Y014877D02*
X011895Y014877D01*
X011895Y014647D01*
X011972Y014570D01*
X012125Y014570D01*
X012125Y015031D02*
X012202Y015108D01*
X012202Y015261D01*
X012125Y015338D01*
X011895Y015338D01*
X011972Y015491D02*
X012125Y015491D01*
X012202Y015568D01*
X012202Y015721D01*
X012125Y015798D01*
X012049Y015798D01*
X012049Y015491D01*
X011972Y015491D02*
X011895Y015568D01*
X011895Y015721D01*
X011895Y015952D02*
X011895Y016182D01*
X011972Y016259D01*
X012049Y016182D01*
X012049Y016028D01*
X012125Y015952D01*
X012202Y016028D01*
X012202Y016259D01*
X012202Y016412D02*
X012202Y016489D01*
X011895Y016489D01*
X011895Y016565D02*
X011895Y016412D01*
X012202Y016719D02*
X011895Y016872D01*
X012202Y017026D01*
X012125Y017179D02*
X012202Y017256D01*
X012202Y017409D01*
X012125Y017486D01*
X012049Y017486D01*
X012049Y017179D01*
X012125Y017179D02*
X011972Y017179D01*
X011895Y017256D01*
X011895Y017409D01*
X012356Y016489D02*
X012432Y016489D01*
X013076Y016489D02*
X013383Y016489D01*
X013383Y016412D01*
X013383Y016259D02*
X013383Y016105D01*
X013460Y016182D02*
X013153Y016182D01*
X013076Y016259D01*
X013076Y016412D02*
X013076Y016565D01*
X013153Y016719D02*
X013076Y016796D01*
X013076Y016949D01*
X013153Y017026D01*
X013306Y017026D01*
X013383Y016949D01*
X013383Y016796D01*
X013306Y016719D01*
X013153Y016719D01*
X013076Y017179D02*
X013383Y017179D01*
X013383Y017409D01*
X013306Y017486D01*
X013076Y017486D01*
X013537Y016489D02*
X013613Y016489D01*
X013306Y015952D02*
X013076Y015952D01*
X013076Y015721D01*
X013153Y015645D01*
X013230Y015721D01*
X013230Y015952D01*
X013306Y015952D02*
X013383Y015875D01*
X013383Y015721D01*
X013383Y015491D02*
X013076Y015184D01*
X013076Y015031D02*
X013076Y014877D01*
X013076Y014954D02*
X013383Y014954D01*
X013383Y014877D01*
X013306Y014724D02*
X013306Y014570D01*
X013460Y014647D02*
X013537Y014724D01*
X013460Y014647D02*
X013076Y014647D01*
X013383Y015184D02*
X013076Y015491D01*
X013537Y014954D02*
X013613Y014954D01*
X012356Y015031D02*
X011895Y015031D01*
X009419Y020933D02*
X008958Y020933D01*
X009112Y020933D02*
X009112Y021163D01*
X009188Y021240D01*
X009342Y021240D01*
X009419Y021163D01*
X009419Y020933D01*
X009112Y021086D02*
X008958Y021240D01*
X008958Y021393D02*
X008958Y021700D01*
X008958Y021547D02*
X009419Y021547D01*
X009265Y021393D01*
X009265Y021854D02*
X009419Y022007D01*
X008958Y022007D01*
X008958Y021854D02*
X008958Y022161D01*
X008958Y022508D02*
X009419Y022508D01*
X009419Y022738D01*
X009342Y022815D01*
X009188Y022815D01*
X009112Y022738D01*
X009112Y022508D01*
X009112Y022661D02*
X008958Y022815D01*
X009035Y022968D02*
X008958Y023045D01*
X008958Y023198D01*
X009035Y023275D01*
X009112Y023275D01*
X009188Y023198D01*
X009188Y023122D01*
X009188Y023198D02*
X009265Y023275D01*
X009342Y023275D01*
X009419Y023198D01*
X009419Y023045D01*
X009342Y022968D01*
X010438Y024439D02*
X010361Y024516D01*
X010361Y024669D01*
X010438Y024746D01*
X010515Y024746D01*
X010668Y024669D01*
X010668Y024899D01*
X010361Y024899D01*
X010393Y025423D02*
X010316Y025500D01*
X010316Y025577D01*
X010393Y025653D01*
X010470Y025653D01*
X010393Y025653D02*
X010316Y025730D01*
X010316Y025807D01*
X010393Y025884D01*
X010546Y025884D01*
X010623Y025807D01*
X010777Y025807D02*
X010853Y025884D01*
X011007Y025884D01*
X011084Y025807D01*
X011084Y025500D01*
X011007Y025423D01*
X010853Y025423D01*
X010777Y025500D01*
X010623Y025500D02*
X010546Y025423D01*
X010393Y025423D01*
X010899Y024899D02*
X010822Y024823D01*
X010822Y024669D01*
X010899Y024592D01*
X011129Y024592D01*
X011129Y024439D02*
X011129Y024899D01*
X010899Y024899D01*
X010975Y024592D02*
X010822Y024439D01*
X010668Y024516D02*
X010592Y024439D01*
X010438Y024439D01*
X007881Y024439D02*
X007881Y024899D01*
X007651Y024899D01*
X007574Y024823D01*
X007574Y024669D01*
X007651Y024592D01*
X007881Y024592D01*
X007727Y024592D02*
X007574Y024439D01*
X007420Y024439D02*
X007113Y024439D01*
X006960Y024439D02*
X006653Y024746D01*
X006653Y024823D01*
X006730Y024899D01*
X006883Y024899D01*
X006960Y024823D01*
X007267Y024899D02*
X007267Y024439D01*
X006960Y024439D02*
X006653Y024439D01*
X007267Y024899D02*
X007420Y024746D01*
X007420Y025423D02*
X007420Y025500D01*
X007113Y025807D01*
X007113Y025884D01*
X007420Y025884D01*
X007574Y025807D02*
X007574Y025653D01*
X007651Y025577D01*
X007881Y025577D01*
X007727Y025577D02*
X007574Y025423D01*
X007574Y025807D02*
X007651Y025884D01*
X007881Y025884D01*
X007881Y025423D01*
X006860Y028610D02*
X006399Y028610D01*
X006553Y028610D02*
X006553Y028840D01*
X006629Y028917D01*
X006783Y028917D01*
X006860Y028840D01*
X006860Y028610D01*
X006553Y028764D02*
X006399Y028917D01*
X006476Y029071D02*
X006399Y029147D01*
X006399Y029301D01*
X006476Y029377D01*
X006783Y029377D01*
X006860Y029301D01*
X006860Y029147D01*
X006783Y029071D01*
X006706Y029071D01*
X006629Y029147D01*
X006629Y029377D01*
X004928Y028738D02*
X004928Y028277D01*
X004928Y028431D02*
X004698Y028431D01*
X004621Y028508D01*
X004621Y028661D01*
X004698Y028738D01*
X004928Y028738D01*
X004775Y028431D02*
X004621Y028277D01*
X004468Y028277D02*
X004161Y028277D01*
X004314Y028277D02*
X004314Y028738D01*
X004468Y028584D01*
X004007Y028661D02*
X004007Y028354D01*
X003700Y028661D01*
X003700Y028354D01*
X003777Y028277D01*
X003930Y028277D01*
X004007Y028354D01*
X004007Y028661D02*
X003930Y028738D01*
X003777Y028738D01*
X003700Y028661D01*
X003995Y025884D02*
X004149Y025884D01*
X004225Y025807D01*
X004379Y025807D02*
X004456Y025884D01*
X004609Y025884D01*
X004686Y025807D01*
X004686Y025500D01*
X004609Y025423D01*
X004456Y025423D01*
X004379Y025500D01*
X004225Y025423D02*
X003919Y025730D01*
X003919Y025807D01*
X003995Y025884D01*
X003919Y025423D02*
X004225Y025423D01*
X004403Y024899D02*
X004326Y024823D01*
X004326Y024669D01*
X004403Y024592D01*
X004633Y024592D01*
X004633Y024439D02*
X004633Y024899D01*
X004403Y024899D01*
X004479Y024592D02*
X004326Y024439D01*
X004172Y024516D02*
X004096Y024439D01*
X003942Y024439D01*
X003865Y024516D01*
X003865Y024592D01*
X003942Y024669D01*
X004172Y024669D01*
X004172Y024516D01*
X004172Y024669D02*
X004019Y024823D01*
X003865Y024899D01*
X003156Y020372D02*
X002926Y020372D01*
X002849Y020295D01*
X002849Y020142D01*
X002926Y020065D01*
X003156Y020065D01*
X003003Y020065D02*
X002849Y019911D01*
X002696Y020142D02*
X002389Y020142D01*
X002466Y020372D02*
X002466Y019911D01*
X002696Y020142D02*
X002466Y020372D01*
X003156Y020372D02*
X003156Y019911D01*
X001602Y016281D02*
X001372Y016281D01*
X001372Y016127D02*
X001602Y016127D01*
X001678Y016204D01*
X001602Y016281D01*
X001602Y016127D02*
X001678Y016051D01*
X001678Y015974D01*
X001372Y015974D01*
X001448Y015820D02*
X001602Y015820D01*
X001678Y015744D01*
X001678Y015590D01*
X001602Y015513D01*
X001448Y015513D01*
X001372Y015590D01*
X001372Y015744D01*
X001448Y015820D01*
X001372Y015360D02*
X001372Y015130D01*
X001448Y015053D01*
X001602Y015053D01*
X001678Y015130D01*
X001678Y015360D01*
X001678Y014669D02*
X001678Y014439D01*
X001602Y014362D01*
X001448Y014362D01*
X001372Y014439D01*
X001372Y014669D01*
X001295Y014669D02*
X001678Y014669D01*
X001448Y014823D02*
X001448Y014900D01*
X001372Y014900D01*
X001372Y014823D01*
X001448Y014823D01*
X001295Y014669D02*
X001218Y014593D01*
X001218Y014516D01*
X001448Y014209D02*
X001602Y014209D01*
X001678Y014132D01*
X001678Y013979D01*
X001602Y013902D01*
X001448Y013902D01*
X001372Y013979D01*
X001372Y014132D01*
X001448Y014209D01*
X001372Y013749D02*
X001372Y013595D01*
X001372Y013672D02*
X001832Y013672D01*
X001832Y013595D01*
X001678Y013365D02*
X001678Y013135D01*
X001678Y012981D02*
X001372Y012828D01*
X001678Y012674D01*
X001602Y012521D02*
X001678Y012444D01*
X001678Y012291D01*
X001602Y012214D01*
X001448Y012214D01*
X001372Y012291D01*
X001372Y012444D01*
X001525Y012521D02*
X001525Y012214D01*
X001525Y012060D02*
X001525Y011754D01*
X001448Y011754D02*
X001602Y011754D01*
X001678Y011830D01*
X001678Y011984D01*
X001602Y012060D01*
X001525Y012060D01*
X001372Y011984D02*
X001372Y011830D01*
X001448Y011754D01*
X001372Y011140D02*
X001448Y011063D01*
X001755Y011063D01*
X001678Y010986D02*
X001678Y011140D01*
X001602Y010833D02*
X001372Y010833D01*
X001372Y010603D01*
X001448Y010526D01*
X001525Y010603D01*
X001525Y010833D01*
X001602Y010833D02*
X001678Y010756D01*
X001678Y010603D01*
X002159Y010756D02*
X002159Y010986D01*
X002236Y011063D01*
X002389Y011063D01*
X002466Y010986D01*
X002466Y010756D01*
X002619Y010756D02*
X002159Y010756D01*
X002236Y011216D02*
X002159Y011293D01*
X002159Y011523D01*
X002082Y011523D02*
X002005Y011447D01*
X002005Y011370D01*
X002082Y011523D02*
X002466Y011523D01*
X002466Y011216D02*
X002236Y011216D01*
X002005Y012137D02*
X002005Y012214D01*
X002082Y012291D01*
X002466Y012291D01*
X002619Y012291D02*
X002696Y012291D01*
X002466Y012521D02*
X002466Y012674D01*
X002389Y012751D01*
X002159Y012751D01*
X002159Y012521D01*
X002236Y012444D01*
X002312Y012521D01*
X002312Y012751D01*
X002159Y012905D02*
X002466Y012905D01*
X002466Y013135D01*
X002389Y013211D01*
X002159Y013211D01*
X002159Y013365D02*
X002159Y013672D01*
X002159Y013825D02*
X002159Y014055D01*
X002236Y014132D01*
X002312Y014055D01*
X002312Y013902D01*
X002389Y013825D01*
X002466Y013902D01*
X002466Y014132D01*
X002619Y013518D02*
X002159Y013518D01*
X001832Y013135D02*
X001372Y013135D01*
X001372Y013365D01*
X001448Y013442D01*
X001602Y013442D01*
X001678Y013365D01*
X001602Y012521D02*
X001525Y012521D01*
X002466Y013365D02*
X002619Y013518D01*
X002466Y010142D02*
X002082Y010142D01*
X002005Y010065D01*
X002005Y009989D01*
X002159Y009912D02*
X002159Y010142D01*
X002159Y009912D02*
X002236Y009835D01*
X002466Y009835D01*
X002389Y009682D02*
X002236Y009682D01*
X002159Y009605D01*
X002159Y009375D01*
X002005Y009375D02*
X002466Y009375D01*
X002466Y009605D01*
X002389Y009682D01*
X002389Y009221D02*
X002236Y009221D01*
X002159Y009145D01*
X002159Y008991D01*
X002236Y008914D01*
X002389Y008914D01*
X002466Y008991D01*
X002466Y009145D01*
X002389Y009221D01*
X002466Y008761D02*
X002466Y008531D01*
X002389Y008454D01*
X002236Y008454D01*
X002159Y008531D01*
X002159Y008761D01*
X001832Y008684D02*
X001372Y008684D01*
X001372Y008454D01*
X001448Y008377D01*
X001602Y008377D01*
X001678Y008454D01*
X001678Y008684D01*
X001678Y008838D02*
X001448Y008838D01*
X001372Y008914D01*
X001372Y009145D01*
X001678Y009145D01*
X001602Y009298D02*
X001678Y009375D01*
X001678Y009605D01*
X001678Y009758D02*
X001678Y009912D01*
X001755Y009835D02*
X001448Y009835D01*
X001372Y009912D01*
X001372Y009605D02*
X001372Y009375D01*
X001448Y009298D01*
X001602Y009298D01*
X001602Y008224D02*
X001448Y008224D01*
X001372Y008147D01*
X001372Y007994D01*
X001448Y007917D01*
X001602Y007917D01*
X001678Y007994D01*
X001678Y008147D01*
X001602Y008224D01*
X001678Y007763D02*
X001678Y007687D01*
X001525Y007533D01*
X001372Y007533D02*
X001678Y007533D01*
X001602Y007380D02*
X001448Y007380D01*
X001372Y007303D01*
X001372Y007073D01*
X001218Y007073D02*
X001678Y007073D01*
X001678Y007303D01*
X001602Y007380D01*
X001372Y006459D02*
X001372Y006306D01*
X001372Y006382D02*
X001832Y006382D01*
X001832Y006306D01*
X001602Y006152D02*
X001678Y006075D01*
X001678Y005922D01*
X001525Y005922D02*
X001525Y006152D01*
X001602Y006152D02*
X001372Y006152D01*
X001372Y005922D01*
X001448Y005845D01*
X001525Y005922D01*
X001602Y005692D02*
X001372Y005692D01*
X001602Y005692D02*
X001678Y005615D01*
X001678Y005385D01*
X001372Y005385D01*
X001372Y005231D02*
X001372Y005078D01*
X001372Y005155D02*
X001678Y005155D01*
X001678Y005078D01*
X001678Y004924D02*
X001678Y004694D01*
X001602Y004617D01*
X001448Y004617D01*
X001372Y004694D01*
X001372Y004924D01*
X001295Y004924D02*
X001678Y004924D01*
X001832Y005155D02*
X001909Y005155D01*
X002005Y005308D02*
X002466Y005308D01*
X002466Y005538D01*
X002389Y005615D01*
X002236Y005615D01*
X002159Y005538D01*
X002159Y005308D01*
X002159Y005155D02*
X002159Y004924D01*
X002236Y004848D01*
X002312Y004924D01*
X002312Y005155D01*
X002389Y005155D02*
X002159Y005155D01*
X002312Y004694D02*
X002312Y004387D01*
X002236Y004387D02*
X002389Y004387D01*
X002466Y004464D01*
X002466Y004617D01*
X002389Y004694D01*
X002312Y004694D01*
X002159Y004617D02*
X002159Y004464D01*
X002236Y004387D01*
X002159Y004234D02*
X002389Y004234D01*
X002466Y004157D01*
X002466Y004004D01*
X002389Y003927D01*
X002466Y003773D02*
X002466Y003543D01*
X002389Y003466D01*
X002236Y003466D01*
X002159Y003543D01*
X002159Y003773D01*
X002159Y003927D02*
X002619Y003927D01*
X002466Y004924D02*
X002466Y005078D01*
X002389Y005155D01*
X002389Y005768D02*
X002389Y006075D01*
X002236Y006229D02*
X002312Y006306D01*
X002312Y006536D01*
X002389Y006536D02*
X002159Y006536D01*
X002159Y006306D01*
X002236Y006229D01*
X002466Y006306D02*
X002466Y006459D01*
X002389Y006536D01*
X002312Y006689D02*
X002466Y006843D01*
X002466Y006919D01*
X002389Y007073D02*
X002466Y007150D01*
X002466Y007380D01*
X002389Y007533D02*
X002236Y007533D01*
X002159Y007610D01*
X002159Y007763D01*
X002312Y007840D02*
X002312Y007533D01*
X002389Y007533D02*
X002466Y007610D01*
X002466Y007763D01*
X002389Y007840D01*
X002312Y007840D01*
X002236Y007380D02*
X002159Y007303D01*
X002159Y007073D01*
X002312Y007150D02*
X002389Y007073D01*
X002312Y007150D02*
X002312Y007303D01*
X002236Y007380D01*
X002159Y006689D02*
X002466Y006689D01*
X001295Y004924D02*
X001218Y004848D01*
X001218Y004771D01*
X001372Y004464D02*
X001372Y004311D01*
X001372Y004387D02*
X001678Y004387D01*
X001678Y004311D01*
X001678Y004157D02*
X001678Y004080D01*
X001525Y003927D01*
X001372Y003927D02*
X001678Y003927D01*
X001602Y003773D02*
X001678Y003697D01*
X001678Y003543D01*
X001602Y003466D01*
X001448Y003466D01*
X001372Y003543D01*
X001372Y003697D01*
X001448Y003773D01*
X001602Y003773D01*
X001832Y004387D02*
X001909Y004387D01*
X004554Y013317D02*
X004861Y013317D01*
X004554Y013624D01*
X004554Y013701D01*
X004631Y013777D01*
X004785Y013777D01*
X004861Y013701D01*
X005015Y013701D02*
X005015Y013547D01*
X005092Y013470D01*
X005322Y013470D01*
X005322Y013317D02*
X005322Y013777D01*
X005092Y013777D01*
X005015Y013701D01*
X005168Y013470D02*
X005015Y013317D01*
X005015Y014301D02*
X005168Y014455D01*
X005092Y014455D02*
X005322Y014455D01*
X005322Y014301D02*
X005322Y014761D01*
X005092Y014761D01*
X005015Y014685D01*
X005015Y014531D01*
X005092Y014455D01*
X004861Y014455D02*
X004785Y014531D01*
X004631Y014531D01*
X004554Y014455D01*
X004554Y014378D01*
X004631Y014301D01*
X004785Y014301D01*
X004861Y014378D01*
X004861Y014455D01*
X004785Y014531D02*
X004861Y014608D01*
X004861Y014685D01*
X004785Y014761D01*
X004631Y014761D01*
X004554Y014685D01*
X004554Y014608D01*
X004631Y014531D01*
X005789Y017352D02*
X006096Y017352D01*
X006249Y017352D02*
X006403Y017506D01*
X006326Y017506D02*
X006556Y017506D01*
X006556Y017352D02*
X006556Y017813D01*
X006326Y017813D01*
X006249Y017736D01*
X006249Y017582D01*
X006326Y017506D01*
X006096Y017659D02*
X005942Y017813D01*
X005942Y017352D01*
X007678Y018608D02*
X007985Y018608D01*
X007831Y018608D02*
X007831Y019069D01*
X007985Y018915D01*
X008138Y018992D02*
X008215Y019069D01*
X008369Y019069D01*
X008445Y018992D01*
X008445Y018685D01*
X008369Y018608D01*
X008215Y018608D01*
X008138Y018685D01*
X016289Y018520D02*
X016289Y018290D01*
X016749Y018290D01*
X016749Y018520D01*
X016673Y018597D01*
X016596Y018597D01*
X016519Y018520D01*
X016519Y018290D01*
X016519Y018520D02*
X016442Y018597D01*
X016366Y018597D01*
X016289Y018520D01*
X016289Y018904D02*
X016749Y018904D01*
X016749Y019057D02*
X016749Y018750D01*
X016596Y019211D02*
X016749Y019364D01*
X016289Y019364D01*
X016289Y019211D02*
X016289Y019518D01*
D12*
X007470Y021724D02*
X007470Y022964D01*
X007468Y022987D01*
X007463Y023010D01*
X007454Y023032D01*
X007441Y023052D01*
X007426Y023070D01*
X007408Y023085D01*
X007388Y023098D01*
X007366Y023107D01*
X007343Y023112D01*
X007320Y023114D01*
X005620Y023114D01*
X005597Y023112D01*
X005574Y023107D01*
X005552Y023098D01*
X005532Y023085D01*
X005514Y023070D01*
X005499Y023052D01*
X005486Y023032D01*
X005477Y023010D01*
X005472Y022987D01*
X005470Y022964D01*
X005470Y022544D01*
X005470Y022144D01*
X005470Y021724D01*
X005472Y021701D01*
X005477Y021678D01*
X005486Y021656D01*
X005499Y021636D01*
X005514Y021618D01*
X005532Y021603D01*
X005552Y021590D01*
X005574Y021581D01*
X005597Y021576D01*
X005620Y021574D01*
X007320Y021574D01*
X007343Y021576D01*
X007366Y021581D01*
X007388Y021590D01*
X007408Y021603D01*
X007426Y021618D01*
X007441Y021636D01*
X007454Y021656D01*
X007463Y021678D01*
X007468Y021701D01*
X007470Y021724D01*
X005470Y022144D02*
X005497Y022146D01*
X005524Y022151D01*
X005550Y022161D01*
X005574Y022173D01*
X005596Y022189D01*
X005616Y022207D01*
X005633Y022229D01*
X005648Y022252D01*
X005658Y022277D01*
X005666Y022303D01*
X005670Y022330D01*
X005670Y022358D01*
X005666Y022385D01*
X005658Y022411D01*
X005648Y022436D01*
X005633Y022459D01*
X005616Y022481D01*
X005596Y022499D01*
X005574Y022515D01*
X005550Y022527D01*
X005524Y022537D01*
X005497Y022542D01*
X005470Y022544D01*
X005288Y020410D02*
X004938Y020410D01*
X005288Y020410D02*
X005288Y020200D01*
X005288Y019960D01*
X005288Y019890D01*
X005288Y019960D02*
X005267Y019962D01*
X005247Y019967D01*
X005228Y019976D01*
X005211Y019988D01*
X005196Y020003D01*
X005184Y020020D01*
X005175Y020039D01*
X005170Y020059D01*
X005168Y020080D01*
X005170Y020101D01*
X005175Y020121D01*
X005184Y020140D01*
X005196Y020157D01*
X005211Y020172D01*
X005228Y020184D01*
X005247Y020193D01*
X005267Y020198D01*
X005288Y020200D01*
X004828Y019750D02*
X004568Y019750D01*
X004458Y020410D02*
X004108Y020410D01*
X004108Y019890D01*
X003534Y026788D02*
X003534Y027349D01*
X002318Y027349D02*
X002318Y026788D01*
D13*
X005470Y022974D02*
X007470Y022974D01*
D14*
X009619Y019982D02*
X009619Y018013D01*
X009619Y013289D01*
X009619Y011911D01*
X010210Y011320D01*
X011194Y011320D01*
X011194Y010139D01*
X011588Y010139D01*
X011588Y010730D01*
X013950Y010730D01*
X013950Y010139D01*
X014344Y010139D01*
X014344Y011320D01*
X015918Y011320D01*
X015918Y013289D01*
X015918Y018013D01*
X015918Y019982D01*
X014344Y019982D01*
X014344Y021163D01*
X013950Y021163D01*
X013950Y020572D01*
X011588Y020572D01*
X011588Y021163D01*
X011194Y021163D01*
X011194Y019982D01*
X009619Y019982D01*
X009816Y019391D02*
X009818Y019430D01*
X009824Y019469D01*
X009834Y019507D01*
X009847Y019544D01*
X009864Y019579D01*
X009884Y019613D01*
X009908Y019644D01*
X009935Y019673D01*
X009964Y019699D01*
X009996Y019722D01*
X010030Y019742D01*
X010066Y019758D01*
X010103Y019770D01*
X010142Y019779D01*
X010181Y019784D01*
X010220Y019785D01*
X010259Y019782D01*
X010298Y019775D01*
X010335Y019764D01*
X010372Y019750D01*
X010407Y019732D01*
X010440Y019711D01*
X010471Y019686D01*
X010499Y019659D01*
X010524Y019629D01*
X010546Y019596D01*
X010565Y019562D01*
X010580Y019526D01*
X010592Y019488D01*
X010600Y019450D01*
X010604Y019411D01*
X010604Y019371D01*
X010600Y019332D01*
X010592Y019294D01*
X010580Y019256D01*
X010565Y019220D01*
X010546Y019186D01*
X010524Y019153D01*
X010499Y019123D01*
X010471Y019096D01*
X010440Y019071D01*
X010407Y019050D01*
X010372Y019032D01*
X010335Y019018D01*
X010298Y019007D01*
X010259Y019000D01*
X010220Y018997D01*
X010181Y018998D01*
X010142Y019003D01*
X010103Y019012D01*
X010066Y019024D01*
X010030Y019040D01*
X009996Y019060D01*
X009964Y019083D01*
X009935Y019109D01*
X009908Y019138D01*
X009884Y019169D01*
X009864Y019203D01*
X009847Y019238D01*
X009834Y019275D01*
X009824Y019313D01*
X009818Y019352D01*
X009816Y019391D01*
X011588Y019391D02*
X011588Y019588D01*
X013950Y019588D01*
X013950Y019391D01*
X013950Y019588D02*
X013950Y020572D01*
X013950Y018013D02*
X011588Y018013D01*
X011588Y013289D01*
X013950Y013289D01*
X013950Y018013D01*
X015919Y013288D02*
X015801Y013142D01*
X015677Y013002D01*
X015546Y012867D01*
X015409Y012739D01*
X015266Y012617D01*
X015117Y012502D01*
X014963Y012395D01*
X014805Y012294D01*
X014641Y012202D01*
X014474Y012117D01*
X014303Y012040D01*
X014128Y011971D01*
X013950Y011910D01*
X013950Y011911D02*
X013950Y011714D01*
X011588Y011714D01*
X011588Y010730D01*
X011588Y011714D02*
X011588Y011911D01*
X011588Y011910D02*
X011409Y011969D01*
X011234Y012037D01*
X011062Y012113D01*
X010894Y012197D01*
X010730Y012290D01*
X010571Y012390D01*
X010417Y012498D01*
X010269Y012613D01*
X010126Y012735D01*
X009989Y012864D01*
X009859Y012999D01*
X009735Y013141D01*
X009619Y013288D01*
X011588Y019588D02*
X011588Y020572D01*
X011588Y019391D02*
X011409Y019332D01*
X011234Y019263D01*
X011063Y019187D01*
X010895Y019102D01*
X010732Y019010D01*
X010573Y018910D01*
X010419Y018802D01*
X010270Y018687D01*
X010128Y018565D01*
X009991Y018436D01*
X009860Y018301D01*
X009736Y018160D01*
X009619Y018013D01*
X013950Y019391D02*
X014129Y019332D01*
X014304Y019263D01*
X014475Y019187D01*
X014643Y019102D01*
X014806Y019010D01*
X014965Y018910D01*
X015119Y018802D01*
X015268Y018687D01*
X015410Y018565D01*
X015547Y018436D01*
X015678Y018301D01*
X015802Y018160D01*
X015919Y018013D01*
X014934Y011911D02*
X014936Y011950D01*
X014942Y011989D01*
X014952Y012027D01*
X014965Y012064D01*
X014982Y012099D01*
X015002Y012133D01*
X015026Y012164D01*
X015053Y012193D01*
X015082Y012219D01*
X015114Y012242D01*
X015148Y012262D01*
X015184Y012278D01*
X015221Y012290D01*
X015260Y012299D01*
X015299Y012304D01*
X015338Y012305D01*
X015377Y012302D01*
X015416Y012295D01*
X015453Y012284D01*
X015490Y012270D01*
X015525Y012252D01*
X015558Y012231D01*
X015589Y012206D01*
X015617Y012179D01*
X015642Y012149D01*
X015664Y012116D01*
X015683Y012082D01*
X015698Y012046D01*
X015710Y012008D01*
X015718Y011970D01*
X015722Y011931D01*
X015722Y011891D01*
X015718Y011852D01*
X015710Y011814D01*
X015698Y011776D01*
X015683Y011740D01*
X015664Y011706D01*
X015642Y011673D01*
X015617Y011643D01*
X015589Y011616D01*
X015558Y011591D01*
X015525Y011570D01*
X015490Y011552D01*
X015453Y011538D01*
X015416Y011527D01*
X015377Y011520D01*
X015338Y011517D01*
X015299Y011518D01*
X015260Y011523D01*
X015221Y011532D01*
X015184Y011544D01*
X015148Y011560D01*
X015114Y011580D01*
X015082Y011603D01*
X015053Y011629D01*
X015026Y011658D01*
X015002Y011689D01*
X014982Y011723D01*
X014965Y011758D01*
X014952Y011795D01*
X014942Y011833D01*
X014936Y011872D01*
X014934Y011911D01*
X013950Y011714D02*
X013950Y010730D01*
X005295Y022198D02*
X004920Y022198D01*
X004845Y022273D01*
X004845Y022424D01*
X004920Y022499D01*
X005295Y022499D01*
X005145Y022659D02*
X005295Y022809D01*
X004845Y022809D01*
X004845Y022659D02*
X004845Y022959D01*
X004200Y026590D02*
X003825Y026590D01*
X003750Y026665D01*
X003750Y026816D01*
X003825Y026891D01*
X004200Y026891D01*
X004125Y027051D02*
X004200Y027126D01*
X004200Y027276D01*
X004125Y027351D01*
X004050Y027351D01*
X003750Y027051D01*
X003750Y027351D01*
X004462Y019095D02*
X004387Y019020D01*
X004387Y018945D01*
X004462Y018870D01*
X004387Y018795D01*
X004387Y018720D01*
X004462Y018645D01*
X004612Y018645D01*
X004687Y018720D01*
X004847Y018720D02*
X004847Y019095D01*
X004687Y019020D02*
X004612Y019095D01*
X004462Y019095D01*
X004462Y018870D02*
X004537Y018870D01*
X004847Y018720D02*
X004922Y018645D01*
X005072Y018645D01*
X005147Y018720D01*
X005147Y019095D01*
D15*
X005331Y019255D02*
X005645Y019569D01*
X005488Y019569D02*
X005488Y019255D01*
X005645Y019255D02*
X005331Y019569D01*
X005331Y019412D02*
X005645Y019412D01*
D16*
X010013Y019391D02*
X010407Y019391D01*
X015131Y011911D02*
X015525Y011911D01*
X015328Y011714D02*
X015328Y012108D01*
M02*
