%
M48
M72
T01C0.0236
T02C0.0335
T03C0.1260
T04C0.2362
%
T01
X3517Y13683
X2336Y14962
X3517Y14470
X3517Y16832
X2336Y23919
X2336Y21557
X3517Y15257
X4107Y18801
X1745Y18801
X3517Y20769
X3517Y22344
X2336Y22344
T02
X2926Y14175
X2926Y16340
X2926Y21261
X2926Y23427
T03
X2100Y1832
X16352Y1832
X2100Y35769
X16352Y35769
T04
X5879Y5218
X12572Y5218
X5879Y32383
X12572Y32383
M30
