G75*
G70*
%OFA0B0*%
%FSLAX24Y24*%
%IPPOS*%
%LPD*%
%AMOC8*
5,1,8,0,0,1.08239X$1,22.5*
%
%ADD10C,0.0000*%
%ADD11R,0.0453X0.0394*%
%ADD12R,0.0472X0.0472*%
%ADD13C,0.3543*%
%ADD14C,0.0160*%
%ADD15C,0.0240*%
%ADD16C,0.0356*%
%ADD17C,0.0320*%
D10*
X000367Y000100D02*
X000367Y037502D01*
X018084Y037502D01*
X018084Y000100D01*
X000367Y000100D01*
X001470Y001832D02*
X001472Y001882D01*
X001478Y001932D01*
X001488Y001981D01*
X001502Y002029D01*
X001519Y002076D01*
X001540Y002121D01*
X001565Y002165D01*
X001593Y002206D01*
X001625Y002245D01*
X001659Y002282D01*
X001696Y002316D01*
X001736Y002346D01*
X001778Y002373D01*
X001822Y002397D01*
X001868Y002418D01*
X001915Y002434D01*
X001963Y002447D01*
X002013Y002456D01*
X002062Y002461D01*
X002113Y002462D01*
X002163Y002459D01*
X002212Y002452D01*
X002261Y002441D01*
X002309Y002426D01*
X002355Y002408D01*
X002400Y002386D01*
X002443Y002360D01*
X002484Y002331D01*
X002523Y002299D01*
X002559Y002264D01*
X002591Y002226D01*
X002621Y002186D01*
X002648Y002143D01*
X002671Y002099D01*
X002690Y002053D01*
X002706Y002005D01*
X002718Y001956D01*
X002726Y001907D01*
X002730Y001857D01*
X002730Y001807D01*
X002726Y001757D01*
X002718Y001708D01*
X002706Y001659D01*
X002690Y001611D01*
X002671Y001565D01*
X002648Y001521D01*
X002621Y001478D01*
X002591Y001438D01*
X002559Y001400D01*
X002523Y001365D01*
X002484Y001333D01*
X002443Y001304D01*
X002400Y001278D01*
X002355Y001256D01*
X002309Y001238D01*
X002261Y001223D01*
X002212Y001212D01*
X002163Y001205D01*
X002113Y001202D01*
X002062Y001203D01*
X002013Y001208D01*
X001963Y001217D01*
X001915Y001230D01*
X001868Y001246D01*
X001822Y001267D01*
X001778Y001291D01*
X001736Y001318D01*
X001696Y001348D01*
X001659Y001382D01*
X001625Y001419D01*
X001593Y001458D01*
X001565Y001499D01*
X001540Y001543D01*
X001519Y001588D01*
X001502Y001635D01*
X001488Y001683D01*
X001478Y001732D01*
X001472Y001782D01*
X001470Y001832D01*
X002759Y014175D02*
X002761Y014200D01*
X002767Y014225D01*
X002776Y014249D01*
X002789Y014271D01*
X002806Y014291D01*
X002825Y014308D01*
X002846Y014322D01*
X002870Y014332D01*
X002894Y014339D01*
X002920Y014342D01*
X002945Y014341D01*
X002970Y014336D01*
X002994Y014327D01*
X003017Y014315D01*
X003037Y014300D01*
X003055Y014281D01*
X003070Y014260D01*
X003081Y014237D01*
X003089Y014213D01*
X003093Y014188D01*
X003093Y014162D01*
X003089Y014137D01*
X003081Y014113D01*
X003070Y014090D01*
X003055Y014069D01*
X003037Y014050D01*
X003017Y014035D01*
X002994Y014023D01*
X002970Y014014D01*
X002945Y014009D01*
X002920Y014008D01*
X002894Y014011D01*
X002870Y014018D01*
X002846Y014028D01*
X002825Y014042D01*
X002806Y014059D01*
X002789Y014079D01*
X002776Y014101D01*
X002767Y014125D01*
X002761Y014150D01*
X002759Y014175D01*
X002759Y016340D02*
X002761Y016365D01*
X002767Y016390D01*
X002776Y016414D01*
X002789Y016436D01*
X002806Y016456D01*
X002825Y016473D01*
X002846Y016487D01*
X002870Y016497D01*
X002894Y016504D01*
X002920Y016507D01*
X002945Y016506D01*
X002970Y016501D01*
X002994Y016492D01*
X003017Y016480D01*
X003037Y016465D01*
X003055Y016446D01*
X003070Y016425D01*
X003081Y016402D01*
X003089Y016378D01*
X003093Y016353D01*
X003093Y016327D01*
X003089Y016302D01*
X003081Y016278D01*
X003070Y016255D01*
X003055Y016234D01*
X003037Y016215D01*
X003017Y016200D01*
X002994Y016188D01*
X002970Y016179D01*
X002945Y016174D01*
X002920Y016173D01*
X002894Y016176D01*
X002870Y016183D01*
X002846Y016193D01*
X002825Y016207D01*
X002806Y016224D01*
X002789Y016244D01*
X002776Y016266D01*
X002767Y016290D01*
X002761Y016315D01*
X002759Y016340D01*
X002759Y021261D02*
X002761Y021286D01*
X002767Y021311D01*
X002776Y021335D01*
X002789Y021357D01*
X002806Y021377D01*
X002825Y021394D01*
X002846Y021408D01*
X002870Y021418D01*
X002894Y021425D01*
X002920Y021428D01*
X002945Y021427D01*
X002970Y021422D01*
X002994Y021413D01*
X003017Y021401D01*
X003037Y021386D01*
X003055Y021367D01*
X003070Y021346D01*
X003081Y021323D01*
X003089Y021299D01*
X003093Y021274D01*
X003093Y021248D01*
X003089Y021223D01*
X003081Y021199D01*
X003070Y021176D01*
X003055Y021155D01*
X003037Y021136D01*
X003017Y021121D01*
X002994Y021109D01*
X002970Y021100D01*
X002945Y021095D01*
X002920Y021094D01*
X002894Y021097D01*
X002870Y021104D01*
X002846Y021114D01*
X002825Y021128D01*
X002806Y021145D01*
X002789Y021165D01*
X002776Y021187D01*
X002767Y021211D01*
X002761Y021236D01*
X002759Y021261D01*
X002759Y023427D02*
X002761Y023452D01*
X002767Y023477D01*
X002776Y023501D01*
X002789Y023523D01*
X002806Y023543D01*
X002825Y023560D01*
X002846Y023574D01*
X002870Y023584D01*
X002894Y023591D01*
X002920Y023594D01*
X002945Y023593D01*
X002970Y023588D01*
X002994Y023579D01*
X003017Y023567D01*
X003037Y023552D01*
X003055Y023533D01*
X003070Y023512D01*
X003081Y023489D01*
X003089Y023465D01*
X003093Y023440D01*
X003093Y023414D01*
X003089Y023389D01*
X003081Y023365D01*
X003070Y023342D01*
X003055Y023321D01*
X003037Y023302D01*
X003017Y023287D01*
X002994Y023275D01*
X002970Y023266D01*
X002945Y023261D01*
X002920Y023260D01*
X002894Y023263D01*
X002870Y023270D01*
X002846Y023280D01*
X002825Y023294D01*
X002806Y023311D01*
X002789Y023331D01*
X002776Y023353D01*
X002767Y023377D01*
X002761Y023402D01*
X002759Y023427D01*
X001470Y035769D02*
X001472Y035819D01*
X001478Y035869D01*
X001488Y035918D01*
X001502Y035966D01*
X001519Y036013D01*
X001540Y036058D01*
X001565Y036102D01*
X001593Y036143D01*
X001625Y036182D01*
X001659Y036219D01*
X001696Y036253D01*
X001736Y036283D01*
X001778Y036310D01*
X001822Y036334D01*
X001868Y036355D01*
X001915Y036371D01*
X001963Y036384D01*
X002013Y036393D01*
X002062Y036398D01*
X002113Y036399D01*
X002163Y036396D01*
X002212Y036389D01*
X002261Y036378D01*
X002309Y036363D01*
X002355Y036345D01*
X002400Y036323D01*
X002443Y036297D01*
X002484Y036268D01*
X002523Y036236D01*
X002559Y036201D01*
X002591Y036163D01*
X002621Y036123D01*
X002648Y036080D01*
X002671Y036036D01*
X002690Y035990D01*
X002706Y035942D01*
X002718Y035893D01*
X002726Y035844D01*
X002730Y035794D01*
X002730Y035744D01*
X002726Y035694D01*
X002718Y035645D01*
X002706Y035596D01*
X002690Y035548D01*
X002671Y035502D01*
X002648Y035458D01*
X002621Y035415D01*
X002591Y035375D01*
X002559Y035337D01*
X002523Y035302D01*
X002484Y035270D01*
X002443Y035241D01*
X002400Y035215D01*
X002355Y035193D01*
X002309Y035175D01*
X002261Y035160D01*
X002212Y035149D01*
X002163Y035142D01*
X002113Y035139D01*
X002062Y035140D01*
X002013Y035145D01*
X001963Y035154D01*
X001915Y035167D01*
X001868Y035183D01*
X001822Y035204D01*
X001778Y035228D01*
X001736Y035255D01*
X001696Y035285D01*
X001659Y035319D01*
X001625Y035356D01*
X001593Y035395D01*
X001565Y035436D01*
X001540Y035480D01*
X001519Y035525D01*
X001502Y035572D01*
X001488Y035620D01*
X001478Y035669D01*
X001472Y035719D01*
X001470Y035769D01*
X015722Y035769D02*
X015724Y035819D01*
X015730Y035869D01*
X015740Y035918D01*
X015754Y035966D01*
X015771Y036013D01*
X015792Y036058D01*
X015817Y036102D01*
X015845Y036143D01*
X015877Y036182D01*
X015911Y036219D01*
X015948Y036253D01*
X015988Y036283D01*
X016030Y036310D01*
X016074Y036334D01*
X016120Y036355D01*
X016167Y036371D01*
X016215Y036384D01*
X016265Y036393D01*
X016314Y036398D01*
X016365Y036399D01*
X016415Y036396D01*
X016464Y036389D01*
X016513Y036378D01*
X016561Y036363D01*
X016607Y036345D01*
X016652Y036323D01*
X016695Y036297D01*
X016736Y036268D01*
X016775Y036236D01*
X016811Y036201D01*
X016843Y036163D01*
X016873Y036123D01*
X016900Y036080D01*
X016923Y036036D01*
X016942Y035990D01*
X016958Y035942D01*
X016970Y035893D01*
X016978Y035844D01*
X016982Y035794D01*
X016982Y035744D01*
X016978Y035694D01*
X016970Y035645D01*
X016958Y035596D01*
X016942Y035548D01*
X016923Y035502D01*
X016900Y035458D01*
X016873Y035415D01*
X016843Y035375D01*
X016811Y035337D01*
X016775Y035302D01*
X016736Y035270D01*
X016695Y035241D01*
X016652Y035215D01*
X016607Y035193D01*
X016561Y035175D01*
X016513Y035160D01*
X016464Y035149D01*
X016415Y035142D01*
X016365Y035139D01*
X016314Y035140D01*
X016265Y035145D01*
X016215Y035154D01*
X016167Y035167D01*
X016120Y035183D01*
X016074Y035204D01*
X016030Y035228D01*
X015988Y035255D01*
X015948Y035285D01*
X015911Y035319D01*
X015877Y035356D01*
X015845Y035395D01*
X015817Y035436D01*
X015792Y035480D01*
X015771Y035525D01*
X015754Y035572D01*
X015740Y035620D01*
X015730Y035669D01*
X015724Y035719D01*
X015722Y035769D01*
X015722Y001832D02*
X015724Y001882D01*
X015730Y001932D01*
X015740Y001981D01*
X015754Y002029D01*
X015771Y002076D01*
X015792Y002121D01*
X015817Y002165D01*
X015845Y002206D01*
X015877Y002245D01*
X015911Y002282D01*
X015948Y002316D01*
X015988Y002346D01*
X016030Y002373D01*
X016074Y002397D01*
X016120Y002418D01*
X016167Y002434D01*
X016215Y002447D01*
X016265Y002456D01*
X016314Y002461D01*
X016365Y002462D01*
X016415Y002459D01*
X016464Y002452D01*
X016513Y002441D01*
X016561Y002426D01*
X016607Y002408D01*
X016652Y002386D01*
X016695Y002360D01*
X016736Y002331D01*
X016775Y002299D01*
X016811Y002264D01*
X016843Y002226D01*
X016873Y002186D01*
X016900Y002143D01*
X016923Y002099D01*
X016942Y002053D01*
X016958Y002005D01*
X016970Y001956D01*
X016978Y001907D01*
X016982Y001857D01*
X016982Y001807D01*
X016978Y001757D01*
X016970Y001708D01*
X016958Y001659D01*
X016942Y001611D01*
X016923Y001565D01*
X016900Y001521D01*
X016873Y001478D01*
X016843Y001438D01*
X016811Y001400D01*
X016775Y001365D01*
X016736Y001333D01*
X016695Y001304D01*
X016652Y001278D01*
X016607Y001256D01*
X016561Y001238D01*
X016513Y001223D01*
X016464Y001212D01*
X016415Y001205D01*
X016365Y001202D01*
X016314Y001203D01*
X016265Y001208D01*
X016215Y001217D01*
X016167Y001230D01*
X016120Y001246D01*
X016074Y001267D01*
X016030Y001291D01*
X015988Y001318D01*
X015948Y001348D01*
X015911Y001382D01*
X015877Y001419D01*
X015845Y001458D01*
X015817Y001499D01*
X015792Y001543D01*
X015771Y001588D01*
X015754Y001635D01*
X015740Y001683D01*
X015730Y001732D01*
X015724Y001782D01*
X015722Y001832D01*
D11*
X004039Y013683D03*
X004039Y014470D03*
X004039Y015257D03*
X004039Y016832D03*
X004039Y020769D03*
X004039Y021557D03*
X004039Y022344D03*
X004039Y023919D03*
X001814Y023919D03*
X001814Y022344D03*
X001814Y021557D03*
X001814Y020769D03*
X001814Y016832D03*
X001814Y015257D03*
X001814Y014470D03*
X001814Y013683D03*
D12*
X002513Y018801D03*
X003340Y018801D03*
D13*
X005879Y032383D03*
X012572Y032383D03*
X012572Y005218D03*
X005879Y005218D03*
D14*
X005296Y003395D02*
X000564Y003395D01*
X000564Y003237D02*
X017887Y003237D01*
X017887Y003395D02*
X013270Y003395D01*
X013320Y003413D02*
X013159Y003355D01*
X012995Y003311D01*
X012827Y003281D01*
X012657Y003266D01*
X012652Y003266D01*
X012652Y005138D01*
X012492Y005138D01*
X012492Y003266D01*
X012487Y003266D01*
X012317Y003281D01*
X012149Y003311D01*
X011985Y003355D01*
X011824Y003413D01*
X011670Y003485D01*
X011522Y003571D01*
X011383Y003668D01*
X011252Y003778D01*
X011132Y003898D01*
X011022Y004029D01*
X010924Y004168D01*
X010839Y004316D01*
X010767Y004471D01*
X010709Y004631D01*
X010665Y004795D01*
X010635Y004963D01*
X010620Y005133D01*
X010620Y005138D01*
X012492Y005138D01*
X012492Y005298D01*
X010620Y005298D01*
X010620Y005303D01*
X010635Y005473D01*
X010665Y005641D01*
X010709Y005806D01*
X010767Y005966D01*
X010839Y006120D01*
X010924Y006268D01*
X011022Y006407D01*
X007394Y006407D01*
X007409Y006392D02*
X007053Y006748D01*
X006617Y006999D01*
X006131Y007130D01*
X005627Y007130D01*
X005141Y006999D01*
X004705Y006748D01*
X004349Y006392D01*
X004098Y005956D01*
X003967Y005470D01*
X003967Y004966D01*
X004098Y004480D01*
X004349Y004044D01*
X004705Y003688D01*
X005141Y003437D01*
X005627Y003306D01*
X006131Y003306D01*
X006617Y003437D01*
X007053Y003688D01*
X007409Y004044D01*
X007660Y004480D01*
X007791Y004966D01*
X007791Y005470D01*
X007660Y005956D01*
X007409Y006392D01*
X007492Y006248D02*
X010913Y006248D01*
X010825Y006090D02*
X007583Y006090D01*
X007667Y005931D02*
X010755Y005931D01*
X010700Y005773D02*
X007710Y005773D01*
X007752Y005614D02*
X010660Y005614D01*
X010634Y005456D02*
X007791Y005456D01*
X007791Y005297D02*
X012492Y005297D01*
X012492Y005298D02*
X012492Y007170D01*
X012487Y007170D01*
X012317Y007155D01*
X012149Y007125D01*
X011985Y007081D01*
X011824Y007023D01*
X011670Y006951D01*
X011522Y006866D01*
X011383Y006768D01*
X011252Y006658D01*
X011132Y006538D01*
X011022Y006407D01*
X011159Y006565D02*
X007235Y006565D01*
X007077Y006724D02*
X011330Y006724D01*
X011551Y006882D02*
X006820Y006882D01*
X006463Y007041D02*
X011873Y007041D01*
X012492Y007041D02*
X012652Y007041D01*
X012657Y007170D02*
X012652Y007170D01*
X012652Y005298D01*
X014524Y005298D01*
X014524Y005303D01*
X014509Y005473D01*
X014479Y005641D01*
X014435Y005806D01*
X014377Y005966D01*
X014305Y006120D01*
X014220Y006268D01*
X014122Y006407D01*
X017887Y006407D01*
X017887Y006565D02*
X013985Y006565D01*
X014012Y006538D02*
X013892Y006658D01*
X013761Y006768D01*
X013622Y006866D01*
X013474Y006951D01*
X013320Y007023D01*
X013159Y007081D01*
X012995Y007125D01*
X012827Y007155D01*
X012657Y007170D01*
X012652Y006882D02*
X012492Y006882D01*
X012492Y006724D02*
X012652Y006724D01*
X012652Y006565D02*
X012492Y006565D01*
X012492Y006407D02*
X012652Y006407D01*
X012652Y006248D02*
X012492Y006248D01*
X012492Y006090D02*
X012652Y006090D01*
X012652Y005931D02*
X012492Y005931D01*
X012492Y005773D02*
X012652Y005773D01*
X012652Y005614D02*
X012492Y005614D01*
X012492Y005456D02*
X012652Y005456D01*
X012652Y005298D02*
X012492Y005298D01*
X012492Y005139D02*
X007791Y005139D01*
X007791Y004980D02*
X010634Y004980D01*
X010660Y004822D02*
X007752Y004822D01*
X007710Y004663D02*
X010700Y004663D01*
X010755Y004505D02*
X007667Y004505D01*
X007583Y004346D02*
X010825Y004346D01*
X010913Y004188D02*
X007492Y004188D01*
X007394Y004029D02*
X011022Y004029D01*
X011159Y003871D02*
X007235Y003871D01*
X007077Y003712D02*
X011330Y003712D01*
X011551Y003554D02*
X006820Y003554D01*
X006462Y003395D02*
X011874Y003395D01*
X012492Y003395D02*
X012652Y003395D01*
X012652Y003554D02*
X012492Y003554D01*
X012492Y003712D02*
X012652Y003712D01*
X012652Y003871D02*
X012492Y003871D01*
X012492Y004029D02*
X012652Y004029D01*
X012652Y004188D02*
X012492Y004188D01*
X012492Y004346D02*
X012652Y004346D01*
X012652Y004505D02*
X012492Y004505D01*
X012492Y004663D02*
X012652Y004663D01*
X012652Y004822D02*
X012492Y004822D01*
X012492Y004980D02*
X012652Y004980D01*
X012652Y005138D02*
X012652Y005298D01*
X012652Y005297D02*
X017887Y005297D01*
X017887Y005139D02*
X012652Y005139D01*
X012652Y005138D02*
X014524Y005138D01*
X014524Y005133D01*
X014509Y004963D01*
X014479Y004795D01*
X014435Y004631D01*
X014377Y004471D01*
X014305Y004316D01*
X014220Y004168D01*
X014122Y004029D01*
X014012Y003898D01*
X013892Y003778D01*
X013761Y003668D01*
X013622Y003571D01*
X013474Y003485D01*
X013320Y003413D01*
X013593Y003554D02*
X017887Y003554D01*
X017887Y003712D02*
X013814Y003712D01*
X013985Y003871D02*
X017887Y003871D01*
X017887Y004029D02*
X014122Y004029D01*
X014231Y004188D02*
X017887Y004188D01*
X017887Y004346D02*
X014319Y004346D01*
X014389Y004505D02*
X017887Y004505D01*
X017887Y004663D02*
X014444Y004663D01*
X014484Y004822D02*
X017887Y004822D01*
X017887Y004980D02*
X014510Y004980D01*
X014510Y005456D02*
X017887Y005456D01*
X017887Y005614D02*
X014484Y005614D01*
X014444Y005773D02*
X017887Y005773D01*
X017887Y005931D02*
X014389Y005931D01*
X014319Y006090D02*
X017887Y006090D01*
X017887Y006248D02*
X014231Y006248D01*
X014122Y006407D02*
X014012Y006538D01*
X013814Y006724D02*
X017887Y006724D01*
X017887Y006882D02*
X013593Y006882D01*
X013271Y007041D02*
X017887Y007041D01*
X017887Y007199D02*
X000564Y007199D01*
X000564Y007041D02*
X005295Y007041D01*
X004938Y006882D02*
X000564Y006882D01*
X000564Y006724D02*
X004681Y006724D01*
X004523Y006565D02*
X000564Y006565D01*
X000564Y006407D02*
X004364Y006407D01*
X004266Y006248D02*
X000564Y006248D01*
X000564Y006090D02*
X004175Y006090D01*
X004091Y005931D02*
X000564Y005931D01*
X000564Y005773D02*
X004049Y005773D01*
X004006Y005614D02*
X000564Y005614D01*
X000564Y005456D02*
X003967Y005456D01*
X003967Y005297D02*
X000564Y005297D01*
X000564Y005139D02*
X003967Y005139D01*
X003967Y004980D02*
X000564Y004980D01*
X000564Y004822D02*
X004006Y004822D01*
X004049Y004663D02*
X000564Y004663D01*
X000564Y004505D02*
X004091Y004505D01*
X004175Y004346D02*
X000564Y004346D01*
X000564Y004188D02*
X004267Y004188D01*
X004364Y004029D02*
X000564Y004029D01*
X000564Y003871D02*
X004523Y003871D01*
X004681Y003712D02*
X000564Y003712D01*
X000564Y003554D02*
X004939Y003554D01*
X002786Y002291D02*
X002910Y001993D01*
X002910Y001671D01*
X002786Y001373D01*
X002558Y001146D01*
X002261Y001022D01*
X001938Y001022D01*
X001641Y001146D01*
X001413Y001373D01*
X001290Y001671D01*
X001290Y001993D01*
X001413Y002291D01*
X001641Y002519D01*
X001938Y002642D01*
X002261Y002642D01*
X002558Y002519D01*
X002786Y002291D01*
X002788Y002286D02*
X015663Y002286D01*
X015665Y002291D02*
X015542Y001993D01*
X015542Y001671D01*
X015665Y001373D01*
X015893Y001146D01*
X016190Y001022D01*
X016513Y001022D01*
X016810Y001146D01*
X017038Y001373D01*
X017161Y001671D01*
X017161Y001993D01*
X017038Y002291D01*
X016810Y002519D01*
X016513Y002642D01*
X016190Y002642D01*
X015893Y002519D01*
X015665Y002291D01*
X015597Y002127D02*
X002854Y002127D01*
X002910Y001969D02*
X015542Y001969D01*
X015542Y001810D02*
X002910Y001810D01*
X002901Y001652D02*
X015550Y001652D01*
X015615Y001493D02*
X002836Y001493D01*
X002747Y001335D02*
X015704Y001335D01*
X015862Y001176D02*
X002589Y001176D01*
X002633Y002444D02*
X015818Y002444D01*
X016095Y002603D02*
X002356Y002603D01*
X001843Y002603D02*
X000564Y002603D01*
X000564Y002761D02*
X017887Y002761D01*
X017887Y002603D02*
X016608Y002603D01*
X016885Y002444D02*
X017887Y002444D01*
X017887Y002286D02*
X017040Y002286D01*
X017106Y002127D02*
X017887Y002127D01*
X017887Y001969D02*
X017161Y001969D01*
X017161Y001810D02*
X017887Y001810D01*
X017887Y001652D02*
X017153Y001652D01*
X017088Y001493D02*
X017887Y001493D01*
X017887Y001335D02*
X016999Y001335D01*
X016841Y001176D02*
X017887Y001176D01*
X017887Y001018D02*
X000564Y001018D01*
X000564Y001176D02*
X001610Y001176D01*
X001452Y001335D02*
X000564Y001335D01*
X000564Y001493D02*
X001363Y001493D01*
X001298Y001652D02*
X000564Y001652D01*
X000564Y001810D02*
X001290Y001810D01*
X001290Y001969D02*
X000564Y001969D01*
X000564Y002127D02*
X001345Y002127D01*
X001411Y002286D02*
X000564Y002286D01*
X000564Y002444D02*
X001566Y002444D01*
X000564Y002920D02*
X017887Y002920D01*
X017887Y003078D02*
X000564Y003078D01*
X000564Y000859D02*
X017887Y000859D01*
X017887Y000701D02*
X000564Y000701D01*
X000564Y000542D02*
X017887Y000542D01*
X017887Y000384D02*
X000564Y000384D01*
X000564Y000297D02*
X000564Y037305D01*
X017887Y037305D01*
X017887Y000297D01*
X000564Y000297D01*
X000564Y007358D02*
X017887Y007358D01*
X017887Y007516D02*
X000564Y007516D01*
X000564Y007675D02*
X017887Y007675D01*
X017887Y007833D02*
X000564Y007833D01*
X000564Y007992D02*
X017887Y007992D01*
X017887Y008150D02*
X000564Y008150D01*
X000564Y008309D02*
X017887Y008309D01*
X017887Y008467D02*
X000564Y008467D01*
X000564Y008626D02*
X017887Y008626D01*
X017887Y008784D02*
X000564Y008784D01*
X000564Y008943D02*
X017887Y008943D01*
X017887Y009101D02*
X000564Y009101D01*
X000564Y009260D02*
X017887Y009260D01*
X017887Y009418D02*
X000564Y009418D01*
X000564Y009577D02*
X017887Y009577D01*
X017887Y009735D02*
X000564Y009735D01*
X000564Y009894D02*
X017887Y009894D01*
X017887Y010052D02*
X000564Y010052D01*
X000564Y010211D02*
X017887Y010211D01*
X017887Y010369D02*
X000564Y010369D01*
X000564Y010528D02*
X017887Y010528D01*
X017887Y010686D02*
X000564Y010686D01*
X000564Y010845D02*
X017887Y010845D01*
X017887Y011003D02*
X000564Y011003D01*
X000564Y011162D02*
X017887Y011162D01*
X017887Y011320D02*
X000564Y011320D01*
X000564Y011479D02*
X017887Y011479D01*
X017887Y011637D02*
X000564Y011637D01*
X000564Y011796D02*
X017887Y011796D01*
X017887Y011954D02*
X000564Y011954D01*
X000564Y012113D02*
X017887Y012113D01*
X017887Y012271D02*
X000564Y012271D01*
X000564Y012430D02*
X017887Y012430D01*
X017887Y012588D02*
X000564Y012588D01*
X000564Y012747D02*
X017887Y012747D01*
X017887Y012905D02*
X000564Y012905D01*
X000564Y013064D02*
X017887Y013064D01*
X017887Y013222D02*
X000564Y013222D01*
X000564Y013381D02*
X001495Y013381D01*
X001530Y013346D02*
X002099Y013346D01*
X002181Y013428D01*
X002181Y013938D01*
X002099Y014020D01*
X001530Y014020D01*
X001448Y013938D01*
X001448Y013428D01*
X001530Y013346D01*
X001448Y013539D02*
X000564Y013539D01*
X000564Y013698D02*
X001448Y013698D01*
X001448Y013856D02*
X000564Y013856D01*
X000564Y014015D02*
X001525Y014015D01*
X001530Y014133D02*
X002099Y014133D01*
X002181Y014215D01*
X002181Y014250D01*
X002525Y014250D01*
X002621Y014346D01*
X002579Y014244D01*
X002579Y014106D01*
X002632Y013978D01*
X002730Y013880D01*
X002857Y013827D01*
X002995Y013827D01*
X003123Y013880D01*
X003221Y013978D01*
X003274Y014106D01*
X003274Y014244D01*
X003260Y014277D01*
X003337Y014200D01*
X003454Y014152D01*
X003580Y014152D01*
X003690Y014197D01*
X003754Y014133D01*
X004323Y014133D01*
X004405Y014215D01*
X004405Y014725D01*
X004323Y014807D01*
X003754Y014807D01*
X003690Y014743D01*
X003580Y014788D01*
X003510Y014788D01*
X003313Y014985D01*
X002654Y014985D01*
X002654Y015025D01*
X002605Y015142D01*
X002516Y015232D01*
X002399Y015280D01*
X002385Y015280D01*
X002188Y015478D01*
X002181Y015481D01*
X002181Y015512D01*
X002099Y015594D01*
X001530Y015594D01*
X001448Y015512D01*
X001448Y015003D01*
X001530Y014921D01*
X002010Y014921D01*
X002018Y014913D01*
X002018Y014899D01*
X002056Y014807D01*
X001530Y014807D01*
X001448Y014725D01*
X001448Y014215D01*
X001530Y014133D01*
X001490Y014173D02*
X000564Y014173D01*
X000564Y014332D02*
X001448Y014332D01*
X001448Y014490D02*
X000564Y014490D01*
X000564Y014649D02*
X001448Y014649D01*
X001485Y014966D02*
X000564Y014966D01*
X000564Y015124D02*
X001448Y015124D01*
X001448Y015283D02*
X000564Y015283D01*
X000564Y015441D02*
X001448Y015441D01*
X001530Y016495D02*
X002099Y016495D01*
X002135Y016532D01*
X002630Y016532D01*
X002579Y016409D01*
X002579Y016271D01*
X002632Y016143D01*
X002730Y016046D01*
X002857Y015993D01*
X002995Y015993D01*
X003123Y016046D01*
X003221Y016143D01*
X003274Y016271D01*
X003274Y016409D01*
X003223Y016532D01*
X003410Y016532D01*
X003454Y016514D01*
X003580Y016514D01*
X003624Y016532D01*
X003717Y016532D01*
X003754Y016495D01*
X004323Y016495D01*
X004405Y016577D01*
X004405Y017087D01*
X004323Y017169D01*
X003754Y017169D01*
X003717Y017132D01*
X003624Y017132D01*
X003580Y017150D01*
X003454Y017150D01*
X003410Y017132D01*
X002135Y017132D01*
X002099Y017169D01*
X001530Y017169D01*
X001448Y017087D01*
X001448Y016577D01*
X001530Y016495D01*
X001474Y016551D02*
X000564Y016551D01*
X000564Y016709D02*
X001448Y016709D01*
X001448Y016868D02*
X000564Y016868D01*
X000564Y017026D02*
X001448Y017026D01*
X000564Y017185D02*
X017887Y017185D01*
X017887Y017343D02*
X000564Y017343D01*
X000564Y017502D02*
X017887Y017502D01*
X017887Y017660D02*
X000564Y017660D01*
X000564Y017819D02*
X017887Y017819D01*
X017887Y017977D02*
X000564Y017977D01*
X000564Y018136D02*
X017887Y018136D01*
X017887Y018294D02*
X000564Y018294D01*
X000564Y018453D02*
X002191Y018453D01*
X002219Y018425D02*
X002807Y018425D01*
X002889Y018507D01*
X002889Y019095D01*
X002807Y019177D01*
X002219Y019177D01*
X002137Y019095D01*
X002137Y019021D01*
X001975Y019021D01*
X001925Y019070D01*
X001809Y019119D01*
X001682Y019119D01*
X001565Y019070D01*
X001476Y018981D01*
X001427Y018864D01*
X001427Y018738D01*
X001476Y018621D01*
X001565Y018531D01*
X001682Y018483D01*
X001809Y018483D01*
X001925Y018531D01*
X001975Y018581D01*
X002137Y018581D01*
X002137Y018507D01*
X002219Y018425D01*
X002513Y018801D02*
X001745Y018801D01*
X001604Y019087D02*
X000564Y019087D01*
X000564Y019245D02*
X017887Y019245D01*
X017887Y019087D02*
X004248Y019087D01*
X004288Y019070D02*
X004171Y019119D01*
X004044Y019119D01*
X003927Y019070D01*
X003878Y019021D01*
X003716Y019021D01*
X003716Y019095D01*
X003634Y019177D01*
X003046Y019177D01*
X002964Y019095D01*
X002964Y018507D01*
X003046Y018425D01*
X003634Y018425D01*
X003716Y018507D01*
X003716Y018581D01*
X003878Y018581D01*
X003927Y018531D01*
X004044Y018483D01*
X004171Y018483D01*
X004288Y018531D01*
X004377Y018621D01*
X004426Y018738D01*
X004426Y018864D01*
X004377Y018981D01*
X004288Y019070D01*
X004399Y018928D02*
X017887Y018928D01*
X017887Y018770D02*
X004426Y018770D01*
X004368Y018611D02*
X017887Y018611D01*
X017887Y018453D02*
X003662Y018453D01*
X003716Y019087D02*
X003967Y019087D01*
X004107Y018801D02*
X003340Y018801D01*
X002964Y018770D02*
X002889Y018770D01*
X002889Y018928D02*
X002964Y018928D01*
X002964Y019087D02*
X002889Y019087D01*
X002889Y018611D02*
X002964Y018611D01*
X003017Y018453D02*
X002835Y018453D01*
X002137Y019087D02*
X001886Y019087D01*
X001485Y018611D02*
X000564Y018611D01*
X000564Y018770D02*
X001427Y018770D01*
X001454Y018928D02*
X000564Y018928D01*
X000564Y019404D02*
X017887Y019404D01*
X017887Y019562D02*
X000564Y019562D01*
X000564Y019721D02*
X017887Y019721D01*
X017887Y019879D02*
X000564Y019879D01*
X000564Y020038D02*
X017887Y020038D01*
X017887Y020196D02*
X000564Y020196D01*
X000564Y020355D02*
X017887Y020355D01*
X017887Y020513D02*
X004404Y020513D01*
X004405Y020514D02*
X004405Y021024D01*
X004323Y021106D01*
X003754Y021106D01*
X003737Y021089D01*
X003737Y021237D01*
X003754Y021220D01*
X004323Y021220D01*
X004405Y021302D01*
X004405Y021812D01*
X004323Y021894D01*
X003754Y021894D01*
X003672Y021812D01*
X003672Y021777D01*
X003623Y021777D01*
X003297Y021451D01*
X003297Y020999D01*
X003247Y020949D01*
X003199Y020833D01*
X003199Y020706D01*
X003247Y020589D01*
X003337Y020500D01*
X003454Y020451D01*
X003580Y020451D01*
X003690Y020497D01*
X003754Y020432D01*
X004323Y020432D01*
X004405Y020514D01*
X004405Y020672D02*
X017887Y020672D01*
X017887Y020830D02*
X004405Y020830D01*
X004405Y020989D02*
X017887Y020989D01*
X017887Y021147D02*
X003737Y021147D01*
X003517Y021360D02*
X003517Y020769D01*
X003287Y020989D02*
X003145Y020989D01*
X003123Y020967D02*
X003221Y021065D01*
X003274Y021192D01*
X003274Y021331D01*
X003221Y021458D01*
X003123Y021556D01*
X002995Y021609D01*
X002857Y021609D01*
X002730Y021556D01*
X002645Y021471D01*
X002654Y021493D01*
X002654Y021564D01*
X003048Y021958D01*
X003048Y022632D01*
X002556Y023124D01*
X002556Y023689D01*
X002605Y023739D01*
X002654Y023856D01*
X002654Y023982D01*
X002605Y024099D01*
X002516Y024189D01*
X002399Y024237D01*
X002273Y024237D01*
X002163Y024192D01*
X002099Y024256D01*
X001530Y024256D01*
X001448Y024174D01*
X001448Y023664D01*
X001530Y023582D01*
X002099Y023582D01*
X002116Y023599D01*
X002116Y022942D01*
X002245Y022813D01*
X002396Y022662D01*
X002273Y022662D01*
X002163Y022617D01*
X002099Y022681D01*
X001530Y022681D01*
X001448Y022599D01*
X001448Y022089D01*
X001530Y022007D01*
X002099Y022007D01*
X002163Y022071D01*
X002273Y022026D01*
X002399Y022026D01*
X002516Y022074D01*
X002605Y022164D01*
X002608Y022170D01*
X002608Y022140D01*
X002343Y021875D01*
X002273Y021875D01*
X002163Y021829D01*
X002099Y021894D01*
X001530Y021894D01*
X001448Y021812D01*
X001448Y021302D01*
X001530Y021220D01*
X002099Y021220D01*
X002163Y021284D01*
X002273Y021239D01*
X002399Y021239D01*
X002516Y021287D01*
X002593Y021364D01*
X002579Y021331D01*
X002579Y021192D01*
X002632Y021065D01*
X002730Y020967D01*
X002857Y020914D01*
X002995Y020914D01*
X003123Y020967D01*
X003199Y020830D02*
X002181Y020830D01*
X002181Y020672D02*
X003213Y020672D01*
X003323Y020513D02*
X002179Y020513D01*
X002181Y020514D02*
X002181Y021024D01*
X002099Y021106D01*
X001530Y021106D01*
X001448Y021024D01*
X001448Y020514D01*
X001530Y020432D01*
X002099Y020432D01*
X002181Y020514D01*
X002181Y020989D02*
X002708Y020989D01*
X002598Y021147D02*
X000564Y021147D01*
X000564Y020989D02*
X001448Y020989D01*
X001448Y020830D02*
X000564Y020830D01*
X000564Y020672D02*
X001448Y020672D01*
X001449Y020513D02*
X000564Y020513D01*
X000564Y021306D02*
X001448Y021306D01*
X001448Y021464D02*
X000564Y021464D01*
X000564Y021623D02*
X001448Y021623D01*
X001448Y021781D02*
X000564Y021781D01*
X000564Y021940D02*
X002408Y021940D01*
X002540Y022098D02*
X002566Y022098D01*
X002828Y022049D02*
X002828Y022541D01*
X002336Y023033D01*
X002336Y023919D01*
X001814Y023919D01*
X001448Y023842D02*
X000564Y023842D01*
X000564Y024000D02*
X001448Y024000D01*
X001448Y024159D02*
X000564Y024159D01*
X000564Y024317D02*
X017887Y024317D01*
X017887Y024159D02*
X004405Y024159D01*
X004405Y024174D02*
X004323Y024256D01*
X003754Y024256D01*
X003672Y024174D01*
X003672Y023664D01*
X003754Y023582D01*
X004323Y023582D01*
X004405Y023664D01*
X004405Y024174D01*
X004405Y024000D02*
X017887Y024000D01*
X017887Y023842D02*
X004405Y023842D01*
X004405Y023683D02*
X017887Y023683D01*
X017887Y023525D02*
X003262Y023525D01*
X003274Y023496D02*
X003221Y023624D01*
X003123Y023721D01*
X002995Y023774D01*
X002857Y023774D01*
X002730Y023721D01*
X002632Y023624D01*
X002579Y023496D01*
X002579Y023358D01*
X002632Y023230D01*
X002730Y023132D01*
X002857Y023079D01*
X002995Y023079D01*
X003123Y023132D01*
X003221Y023230D01*
X003274Y023358D01*
X003274Y023496D01*
X003274Y023366D02*
X017887Y023366D01*
X017887Y023208D02*
X003199Y023208D01*
X003161Y023683D02*
X003672Y023683D01*
X003672Y023842D02*
X002648Y023842D01*
X002646Y024000D02*
X003672Y024000D01*
X003672Y024159D02*
X002546Y024159D01*
X002556Y023683D02*
X002692Y023683D01*
X002591Y023525D02*
X002556Y023525D01*
X002556Y023366D02*
X002579Y023366D01*
X002556Y023208D02*
X002654Y023208D01*
X002631Y023049D02*
X017887Y023049D01*
X017887Y022891D02*
X002789Y022891D01*
X002948Y022732D02*
X017887Y022732D01*
X017887Y022574D02*
X004405Y022574D01*
X004405Y022599D02*
X004323Y022681D01*
X003754Y022681D01*
X003690Y022617D01*
X003580Y022662D01*
X003454Y022662D01*
X003337Y022614D01*
X003247Y022524D01*
X003199Y022407D01*
X003199Y022281D01*
X003247Y022164D01*
X003337Y022074D01*
X003454Y022026D01*
X003580Y022026D01*
X003690Y022071D01*
X003754Y022007D01*
X004323Y022007D01*
X004405Y022089D01*
X004405Y022599D01*
X004405Y022415D02*
X017887Y022415D01*
X017887Y022257D02*
X004405Y022257D01*
X004405Y022098D02*
X017887Y022098D01*
X017887Y021940D02*
X003030Y021940D01*
X003048Y022098D02*
X003313Y022098D01*
X003209Y022257D02*
X003048Y022257D01*
X003048Y022415D02*
X003202Y022415D01*
X003297Y022574D02*
X003048Y022574D01*
X002828Y022049D02*
X002336Y021557D01*
X001814Y021557D01*
X001448Y022098D02*
X000564Y022098D01*
X000564Y022257D02*
X001448Y022257D01*
X001448Y022415D02*
X000564Y022415D01*
X000564Y022574D02*
X001448Y022574D01*
X001814Y022344D02*
X002336Y022344D01*
X002325Y022732D02*
X000564Y022732D01*
X000564Y022891D02*
X002167Y022891D01*
X002116Y023049D02*
X000564Y023049D01*
X000564Y023208D02*
X002116Y023208D01*
X002116Y023366D02*
X000564Y023366D01*
X000564Y023525D02*
X002116Y023525D01*
X001448Y023683D02*
X000564Y023683D01*
X000564Y024476D02*
X017887Y024476D01*
X017887Y024634D02*
X000564Y024634D01*
X000564Y024793D02*
X017887Y024793D01*
X017887Y024951D02*
X000564Y024951D01*
X000564Y025110D02*
X017887Y025110D01*
X017887Y025268D02*
X000564Y025268D01*
X000564Y025427D02*
X017887Y025427D01*
X017887Y025585D02*
X000564Y025585D01*
X000564Y025744D02*
X017887Y025744D01*
X017887Y025902D02*
X000564Y025902D01*
X000564Y026061D02*
X017887Y026061D01*
X017887Y026219D02*
X000564Y026219D01*
X000564Y026378D02*
X017887Y026378D01*
X017887Y026536D02*
X000564Y026536D01*
X000564Y026695D02*
X017887Y026695D01*
X017887Y026853D02*
X000564Y026853D01*
X000564Y027012D02*
X017887Y027012D01*
X017887Y027170D02*
X000564Y027170D01*
X000564Y027329D02*
X017887Y027329D01*
X017887Y027487D02*
X000564Y027487D01*
X000564Y027646D02*
X017887Y027646D01*
X017887Y027804D02*
X000564Y027804D01*
X000564Y027963D02*
X017887Y027963D01*
X017887Y028121D02*
X000564Y028121D01*
X000564Y028280D02*
X017887Y028280D01*
X017887Y028438D02*
X000564Y028438D01*
X000564Y028597D02*
X017887Y028597D01*
X017887Y028755D02*
X000564Y028755D01*
X000564Y028914D02*
X017887Y028914D01*
X017887Y029072D02*
X000564Y029072D01*
X000564Y029231D02*
X017887Y029231D01*
X017887Y029389D02*
X000564Y029389D01*
X000564Y029548D02*
X017887Y029548D01*
X017887Y029706D02*
X000564Y029706D01*
X000564Y029865D02*
X017887Y029865D01*
X017887Y030023D02*
X000564Y030023D01*
X000564Y030182D02*
X017887Y030182D01*
X017887Y030340D02*
X000564Y030340D01*
X000564Y030499D02*
X005527Y030499D01*
X005627Y030472D02*
X006131Y030472D01*
X006617Y030602D01*
X007053Y030854D01*
X007409Y031210D01*
X007660Y031646D01*
X007791Y032132D01*
X007791Y032635D01*
X007660Y033121D01*
X007409Y033557D01*
X007053Y033913D01*
X006617Y034165D01*
X006131Y034295D01*
X005627Y034295D01*
X005141Y034165D01*
X004705Y033913D01*
X004349Y033557D01*
X004098Y033121D01*
X003967Y032635D01*
X003967Y032132D01*
X004098Y031646D01*
X004349Y031210D01*
X004705Y030854D01*
X005141Y030602D01*
X005627Y030472D01*
X005046Y030657D02*
X000564Y030657D01*
X000564Y030816D02*
X004771Y030816D01*
X004585Y030974D02*
X000564Y030974D01*
X000564Y031133D02*
X004426Y031133D01*
X004302Y031291D02*
X000564Y031291D01*
X000564Y031450D02*
X004211Y031450D01*
X004119Y031608D02*
X000564Y031608D01*
X000564Y031767D02*
X004065Y031767D01*
X004023Y031925D02*
X000564Y031925D01*
X000564Y032084D02*
X003980Y032084D01*
X003967Y032242D02*
X000564Y032242D01*
X000564Y032401D02*
X003967Y032401D01*
X003967Y032559D02*
X000564Y032559D01*
X000564Y032718D02*
X003990Y032718D01*
X004032Y032876D02*
X000564Y032876D01*
X000564Y033035D02*
X004075Y033035D01*
X004139Y033193D02*
X000564Y033193D01*
X000564Y033352D02*
X004231Y033352D01*
X004322Y033510D02*
X000564Y033510D01*
X000564Y033669D02*
X004461Y033669D01*
X004619Y033827D02*
X000564Y033827D01*
X000564Y033986D02*
X004831Y033986D01*
X005106Y034144D02*
X000564Y034144D01*
X000564Y034303D02*
X012218Y034303D01*
X012149Y034291D02*
X012317Y034320D01*
X012487Y034335D01*
X012492Y034335D01*
X012492Y032463D01*
X012492Y032303D01*
X012652Y032303D01*
X012652Y030432D01*
X012657Y030432D01*
X012827Y030447D01*
X012995Y030476D01*
X013159Y030520D01*
X013320Y030579D01*
X013474Y030651D01*
X013622Y030736D01*
X013761Y030834D01*
X013892Y030943D01*
X014012Y031064D01*
X014122Y031194D01*
X014220Y031334D01*
X014305Y031481D01*
X014377Y031636D01*
X014435Y031796D01*
X014479Y031961D01*
X014509Y032128D01*
X014524Y032298D01*
X014524Y032303D01*
X012652Y032303D01*
X012652Y032463D01*
X014524Y032463D01*
X014524Y032469D01*
X014509Y032638D01*
X014479Y032806D01*
X014435Y032971D01*
X014377Y033131D01*
X014305Y033285D01*
X014220Y033433D01*
X014122Y033573D01*
X014012Y033703D01*
X013892Y033824D01*
X013761Y033933D01*
X013622Y034031D01*
X013474Y034116D01*
X013320Y034188D01*
X013159Y034247D01*
X012995Y034291D01*
X012827Y034320D01*
X012657Y034335D01*
X012652Y034335D01*
X012652Y032463D01*
X012492Y032463D01*
X010620Y032463D01*
X010620Y032469D01*
X010635Y032638D01*
X010665Y032806D01*
X010709Y032971D01*
X010767Y033131D01*
X010839Y033285D01*
X010924Y033433D01*
X011022Y033573D01*
X011132Y033703D01*
X011252Y033824D01*
X011383Y033933D01*
X011522Y034031D01*
X011670Y034116D01*
X011824Y034188D01*
X011985Y034247D01*
X012149Y034291D01*
X012492Y034303D02*
X012652Y034303D01*
X012652Y034144D02*
X012492Y034144D01*
X012492Y033986D02*
X012652Y033986D01*
X012652Y033827D02*
X012492Y033827D01*
X012492Y033669D02*
X012652Y033669D01*
X012652Y033510D02*
X012492Y033510D01*
X012492Y033352D02*
X012652Y033352D01*
X012652Y033193D02*
X012492Y033193D01*
X012492Y033035D02*
X012652Y033035D01*
X012652Y032876D02*
X012492Y032876D01*
X012492Y032718D02*
X012652Y032718D01*
X012652Y032559D02*
X012492Y032559D01*
X012492Y032401D02*
X007791Y032401D01*
X007791Y032559D02*
X010628Y032559D01*
X010649Y032718D02*
X007769Y032718D01*
X007726Y032876D02*
X010684Y032876D01*
X010732Y033035D02*
X007684Y033035D01*
X007619Y033193D02*
X010796Y033193D01*
X010878Y033352D02*
X007527Y033352D01*
X007436Y033510D02*
X010979Y033510D01*
X011103Y033669D02*
X007297Y033669D01*
X007139Y033827D02*
X011256Y033827D01*
X011458Y033986D02*
X006927Y033986D01*
X006653Y034144D02*
X011730Y034144D01*
X012652Y032401D02*
X017887Y032401D01*
X017887Y032559D02*
X014516Y032559D01*
X014495Y032718D02*
X017887Y032718D01*
X017887Y032876D02*
X014460Y032876D01*
X014412Y033035D02*
X017887Y033035D01*
X017887Y033193D02*
X014348Y033193D01*
X014267Y033352D02*
X017887Y033352D01*
X017887Y033510D02*
X014166Y033510D01*
X014041Y033669D02*
X017887Y033669D01*
X017887Y033827D02*
X013888Y033827D01*
X013686Y033986D02*
X017887Y033986D01*
X017887Y034144D02*
X013414Y034144D01*
X012926Y034303D02*
X017887Y034303D01*
X017887Y034461D02*
X000564Y034461D01*
X000564Y034620D02*
X017887Y034620D01*
X017887Y034778D02*
X000564Y034778D01*
X000564Y034937D02*
X017887Y034937D01*
X017887Y035095D02*
X016823Y035095D01*
X016810Y035083D02*
X017038Y035311D01*
X017161Y035608D01*
X017161Y035930D01*
X017038Y036228D01*
X016810Y036456D01*
X016513Y036579D01*
X016190Y036579D01*
X015893Y036456D01*
X015665Y036228D01*
X015542Y035930D01*
X015542Y035608D01*
X015665Y035311D01*
X015893Y035083D01*
X016190Y034959D01*
X016513Y034959D01*
X016810Y035083D01*
X016981Y035254D02*
X017887Y035254D01*
X017887Y035412D02*
X017080Y035412D01*
X017146Y035571D02*
X017887Y035571D01*
X017887Y035729D02*
X017161Y035729D01*
X017161Y035888D02*
X017887Y035888D01*
X017887Y036046D02*
X017113Y036046D01*
X017048Y036205D02*
X017887Y036205D01*
X017887Y036363D02*
X016903Y036363D01*
X016651Y036522D02*
X017887Y036522D01*
X017887Y036680D02*
X000564Y036680D01*
X000564Y036522D02*
X001800Y036522D01*
X001938Y036579D02*
X001641Y036456D01*
X001413Y036228D01*
X001290Y035930D01*
X001290Y035608D01*
X001413Y035311D01*
X001641Y035083D01*
X001938Y034959D01*
X002261Y034959D01*
X002558Y035083D01*
X002786Y035311D01*
X002910Y035608D01*
X002910Y035930D01*
X002786Y036228D01*
X002558Y036456D01*
X002261Y036579D01*
X001938Y036579D01*
X001548Y036363D02*
X000564Y036363D01*
X000564Y036205D02*
X001403Y036205D01*
X001338Y036046D02*
X000564Y036046D01*
X000564Y035888D02*
X001290Y035888D01*
X001290Y035729D02*
X000564Y035729D01*
X000564Y035571D02*
X001305Y035571D01*
X001371Y035412D02*
X000564Y035412D01*
X000564Y035254D02*
X001470Y035254D01*
X001628Y035095D02*
X000564Y035095D01*
X000564Y036839D02*
X017887Y036839D01*
X017887Y036997D02*
X000564Y036997D01*
X000564Y037156D02*
X017887Y037156D01*
X016052Y036522D02*
X002399Y036522D01*
X002651Y036363D02*
X015800Y036363D01*
X015655Y036205D02*
X002796Y036205D01*
X002861Y036046D02*
X015590Y036046D01*
X015542Y035888D02*
X002910Y035888D01*
X002910Y035729D02*
X015542Y035729D01*
X015557Y035571D02*
X002894Y035571D01*
X002828Y035412D02*
X015623Y035412D01*
X015722Y035254D02*
X002730Y035254D01*
X002571Y035095D02*
X015880Y035095D01*
X014519Y032242D02*
X017887Y032242D01*
X017887Y032084D02*
X014501Y032084D01*
X014470Y031925D02*
X017887Y031925D01*
X017887Y031767D02*
X014424Y031767D01*
X014364Y031608D02*
X017887Y031608D01*
X017887Y031450D02*
X014287Y031450D01*
X014190Y031291D02*
X017887Y031291D01*
X017887Y031133D02*
X014070Y031133D01*
X013923Y030974D02*
X017887Y030974D01*
X017887Y030816D02*
X013736Y030816D01*
X013486Y030657D02*
X017887Y030657D01*
X017887Y030499D02*
X013079Y030499D01*
X012652Y030499D02*
X012492Y030499D01*
X012492Y030432D02*
X012492Y032303D01*
X010620Y032303D01*
X010620Y032298D01*
X010635Y032128D01*
X010665Y031961D01*
X010709Y031796D01*
X010767Y031636D01*
X010839Y031481D01*
X010924Y031334D01*
X011022Y031194D01*
X011132Y031064D01*
X011252Y030943D01*
X011383Y030834D01*
X011522Y030736D01*
X011670Y030651D01*
X011824Y030579D01*
X011985Y030520D01*
X012149Y030476D01*
X012317Y030447D01*
X012487Y030432D01*
X012492Y030432D01*
X012492Y030657D02*
X012652Y030657D01*
X012652Y030816D02*
X012492Y030816D01*
X012492Y030974D02*
X012652Y030974D01*
X012652Y031133D02*
X012492Y031133D01*
X012492Y031291D02*
X012652Y031291D01*
X012652Y031450D02*
X012492Y031450D01*
X012492Y031608D02*
X012652Y031608D01*
X012652Y031767D02*
X012492Y031767D01*
X012492Y031925D02*
X012652Y031925D01*
X012652Y032084D02*
X012492Y032084D01*
X012492Y032242D02*
X012652Y032242D01*
X012065Y030499D02*
X006232Y030499D01*
X006713Y030657D02*
X011659Y030657D01*
X011408Y030816D02*
X006987Y030816D01*
X007173Y030974D02*
X011221Y030974D01*
X011074Y031133D02*
X007332Y031133D01*
X007456Y031291D02*
X010954Y031291D01*
X010858Y031450D02*
X007547Y031450D01*
X007639Y031608D02*
X010780Y031608D01*
X010720Y031767D02*
X007693Y031767D01*
X007735Y031925D02*
X010674Y031925D01*
X010643Y032084D02*
X007778Y032084D01*
X007791Y032242D02*
X010625Y032242D01*
X004405Y021781D02*
X017887Y021781D01*
X017887Y021623D02*
X004405Y021623D01*
X004405Y021464D02*
X017887Y021464D01*
X017887Y021306D02*
X004405Y021306D01*
X004039Y021557D02*
X003714Y021557D01*
X003517Y021360D01*
X003297Y021306D02*
X003274Y021306D01*
X003255Y021147D02*
X003297Y021147D01*
X003310Y021464D02*
X003215Y021464D01*
X003469Y021623D02*
X002713Y021623D01*
X002872Y021781D02*
X003672Y021781D01*
X003517Y022344D02*
X004039Y022344D01*
X002579Y021306D02*
X002535Y021306D01*
X004405Y017026D02*
X017887Y017026D01*
X017887Y016868D02*
X004405Y016868D01*
X004405Y016709D02*
X017887Y016709D01*
X017887Y016551D02*
X004378Y016551D01*
X004039Y016832D02*
X003517Y016832D01*
X003274Y016392D02*
X017887Y016392D01*
X017887Y016234D02*
X003258Y016234D01*
X003153Y016075D02*
X017887Y016075D01*
X017887Y015917D02*
X000564Y015917D01*
X000564Y016075D02*
X002700Y016075D01*
X002594Y016234D02*
X000564Y016234D01*
X000564Y016392D02*
X002579Y016392D01*
X002224Y015441D02*
X003251Y015441D01*
X003247Y015438D02*
X003199Y015321D01*
X003199Y015194D01*
X003247Y015077D01*
X003337Y014988D01*
X003454Y014939D01*
X003580Y014939D01*
X003690Y014985D01*
X003754Y014921D01*
X004323Y014921D01*
X004405Y015003D01*
X004405Y015512D01*
X004323Y015594D01*
X003754Y015594D01*
X003690Y015530D01*
X003580Y015576D01*
X003454Y015576D01*
X003337Y015527D01*
X003247Y015438D01*
X003199Y015283D02*
X002383Y015283D01*
X002613Y015124D02*
X003228Y015124D01*
X003332Y014966D02*
X003390Y014966D01*
X003491Y014807D02*
X017887Y014807D01*
X017887Y014649D02*
X004405Y014649D01*
X004405Y014490D02*
X017887Y014490D01*
X017887Y014332D02*
X004405Y014332D01*
X004363Y014173D02*
X017887Y014173D01*
X017887Y014015D02*
X004328Y014015D01*
X004323Y014020D02*
X003754Y014020D01*
X003690Y013955D01*
X003580Y014001D01*
X003454Y014001D01*
X003337Y013952D01*
X003247Y013863D01*
X003199Y013746D01*
X003199Y013619D01*
X003247Y013502D01*
X003337Y013413D01*
X003454Y013365D01*
X003580Y013365D01*
X003690Y013410D01*
X003754Y013346D01*
X004323Y013346D01*
X004405Y013428D01*
X004405Y013938D01*
X004323Y014020D01*
X004405Y013856D02*
X017887Y013856D01*
X017887Y013698D02*
X004405Y013698D01*
X004405Y013539D02*
X017887Y013539D01*
X017887Y013381D02*
X004358Y013381D01*
X003719Y013381D02*
X003619Y013381D01*
X003415Y013381D02*
X002133Y013381D01*
X002181Y013539D02*
X003232Y013539D01*
X003199Y013698D02*
X002181Y013698D01*
X002181Y013856D02*
X002788Y013856D01*
X002617Y014015D02*
X002103Y014015D01*
X002139Y014173D02*
X002579Y014173D01*
X002607Y014332D02*
X002615Y014332D01*
X002434Y014470D02*
X002730Y014765D01*
X003222Y014765D01*
X003517Y014470D01*
X004039Y014470D01*
X003714Y014173D02*
X003632Y014173D01*
X003749Y014015D02*
X003236Y014015D01*
X003244Y013856D02*
X003065Y013856D01*
X003274Y014173D02*
X003402Y014173D01*
X003644Y014966D02*
X003709Y014966D01*
X003517Y015257D02*
X004039Y015257D01*
X004405Y015283D02*
X017887Y015283D01*
X017887Y015441D02*
X004405Y015441D01*
X004405Y015124D02*
X017887Y015124D01*
X017887Y014966D02*
X004368Y014966D01*
X002434Y014470D02*
X001814Y014470D01*
X002056Y014807D02*
X000564Y014807D01*
X000564Y015600D02*
X017887Y015600D01*
X017887Y015758D02*
X000564Y015758D01*
D15*
X001814Y015257D02*
X002041Y015257D01*
X002336Y014962D01*
X003517Y013683D02*
X004039Y013683D01*
D16*
X003517Y013683D03*
X003517Y014470D03*
X003517Y015257D03*
X003517Y016832D03*
X004107Y018801D03*
X003517Y020769D03*
X003517Y022344D03*
X002336Y022344D03*
X002336Y021557D03*
X002336Y023919D03*
X001745Y018801D03*
X002336Y014962D03*
D17*
X001814Y016832D02*
X004039Y016832D01*
M02*
